<?xml version="1.0" encoding="utf-8" standalone="no"?>
<!DOCTYPE svg PUBLIC "-//W3C//DTD SVG 1.1//EN"
  "http://www.w3.org/Graphics/SVG/1.1/DTD/svg11.dtd">
<!-- Created with matplotlib (https://matplotlib.org/) -->
<svg height="504pt" version="1.1" viewBox="0 0 864 504" width="864pt" xmlns="http://www.w3.org/2000/svg" xmlns:xlink="http://www.w3.org/1999/xlink">
 <metadata>
  <rdf:RDF xmlns:cc="http://creativecommons.org/ns#" xmlns:dc="http://purl.org/dc/elements/1.1/" xmlns:rdf="http://www.w3.org/1999/02/22-rdf-syntax-ns#">
   <cc:Work>
    <dc:type rdf:resource="http://purl.org/dc/dcmitype/StillImage"/>
    <dc:date>2023-12-08T11:39:30.163580</dc:date>
    <dc:format>image/svg+xml</dc:format>
    <dc:creator>
     <cc:Agent>
      <dc:title>Matplotlib v3.3.4, https://matplotlib.org/</dc:title>
     </cc:Agent>
    </dc:creator>
   </cc:Work>
  </rdf:RDF>
 </metadata>
 <defs>
  <style type="text/css">*{stroke-linecap:butt;stroke-linejoin:round;}</style>
 </defs>
 <g id="figure_1">
  <g id="patch_1">
   <path d="M 0 504 
L 864 504 
L 864 0 
L 0 0 
z
" style="fill:#ffffff;"/>
  </g>
  <g id="axes_1">
   <g id="patch_2">
    <path d="M 108 441 
L 777.6 441 
L 777.6 60.48 
L 108 60.48 
z
" style="fill:#ffffff;"/>
   </g>
   <g id="matplotlib.axis_1">
    <g id="xtick_1">
     <g id="text_1">
      <!-- Siemens -->
      <g style="fill:#262626;" transform="translate(172.607656 473.216563)scale(0.22 -0.22)">
       <defs>
        <path d="M 53.515625 70.515625 
L 53.515625 60.890625 
Q 47.90625 63.578125 42.921875 64.890625 
Q 37.9375 66.21875 33.296875 66.21875 
Q 25.25 66.21875 20.875 63.09375 
Q 16.5 59.96875 16.5 54.203125 
Q 16.5 49.359375 19.40625 46.890625 
Q 22.3125 44.4375 30.421875 42.921875 
L 36.375 41.703125 
Q 47.40625 39.59375 52.65625 34.296875 
Q 57.90625 29 57.90625 20.125 
Q 57.90625 9.515625 50.796875 4.046875 
Q 43.703125 -1.421875 29.984375 -1.421875 
Q 24.8125 -1.421875 18.96875 -0.25 
Q 13.140625 0.921875 6.890625 3.21875 
L 6.890625 13.375 
Q 12.890625 10.015625 18.65625 8.296875 
Q 24.421875 6.59375 29.984375 6.59375 
Q 38.421875 6.59375 43.015625 9.90625 
Q 47.609375 13.234375 47.609375 19.390625 
Q 47.609375 24.75 44.3125 27.78125 
Q 41.015625 30.8125 33.5 32.328125 
L 27.484375 33.5 
Q 16.453125 35.6875 11.515625 40.375 
Q 6.59375 45.0625 6.59375 53.421875 
Q 6.59375 63.09375 13.40625 68.65625 
Q 20.21875 74.21875 32.171875 74.21875 
Q 37.3125 74.21875 42.625 73.28125 
Q 47.953125 72.359375 53.515625 70.515625 
z
" id="DejaVuSans-83"/>
        <path d="M 9.421875 54.6875 
L 18.40625 54.6875 
L 18.40625 0 
L 9.421875 0 
z
M 9.421875 75.984375 
L 18.40625 75.984375 
L 18.40625 64.59375 
L 9.421875 64.59375 
z
" id="DejaVuSans-105"/>
        <path d="M 56.203125 29.59375 
L 56.203125 25.203125 
L 14.890625 25.203125 
Q 15.484375 15.921875 20.484375 11.0625 
Q 25.484375 6.203125 34.421875 6.203125 
Q 39.59375 6.203125 44.453125 7.46875 
Q 49.3125 8.734375 54.109375 11.28125 
L 54.109375 2.78125 
Q 49.265625 0.734375 44.1875 -0.34375 
Q 39.109375 -1.421875 33.890625 -1.421875 
Q 20.796875 -1.421875 13.15625 6.1875 
Q 5.515625 13.8125 5.515625 26.8125 
Q 5.515625 40.234375 12.765625 48.109375 
Q 20.015625 56 32.328125 56 
Q 43.359375 56 49.78125 48.890625 
Q 56.203125 41.796875 56.203125 29.59375 
z
M 47.21875 32.234375 
Q 47.125 39.59375 43.09375 43.984375 
Q 39.0625 48.390625 32.421875 48.390625 
Q 24.90625 48.390625 20.390625 44.140625 
Q 15.875 39.890625 15.1875 32.171875 
z
" id="DejaVuSans-101"/>
        <path d="M 52 44.1875 
Q 55.375 50.25 60.0625 53.125 
Q 64.75 56 71.09375 56 
Q 79.640625 56 84.28125 50.015625 
Q 88.921875 44.046875 88.921875 33.015625 
L 88.921875 0 
L 79.890625 0 
L 79.890625 32.71875 
Q 79.890625 40.578125 77.09375 44.375 
Q 74.3125 48.1875 68.609375 48.1875 
Q 61.625 48.1875 57.5625 43.546875 
Q 53.515625 38.921875 53.515625 30.90625 
L 53.515625 0 
L 44.484375 0 
L 44.484375 32.71875 
Q 44.484375 40.625 41.703125 44.40625 
Q 38.921875 48.1875 33.109375 48.1875 
Q 26.21875 48.1875 22.15625 43.53125 
Q 18.109375 38.875 18.109375 30.90625 
L 18.109375 0 
L 9.078125 0 
L 9.078125 54.6875 
L 18.109375 54.6875 
L 18.109375 46.1875 
Q 21.1875 51.21875 25.484375 53.609375 
Q 29.78125 56 35.6875 56 
Q 41.65625 56 45.828125 52.96875 
Q 50 49.953125 52 44.1875 
z
" id="DejaVuSans-109"/>
        <path d="M 54.890625 33.015625 
L 54.890625 0 
L 45.90625 0 
L 45.90625 32.71875 
Q 45.90625 40.484375 42.875 44.328125 
Q 39.84375 48.1875 33.796875 48.1875 
Q 26.515625 48.1875 22.3125 43.546875 
Q 18.109375 38.921875 18.109375 30.90625 
L 18.109375 0 
L 9.078125 0 
L 9.078125 54.6875 
L 18.109375 54.6875 
L 18.109375 46.1875 
Q 21.34375 51.125 25.703125 53.5625 
Q 30.078125 56 35.796875 56 
Q 45.21875 56 50.046875 50.171875 
Q 54.890625 44.34375 54.890625 33.015625 
z
" id="DejaVuSans-110"/>
        <path d="M 44.28125 53.078125 
L 44.28125 44.578125 
Q 40.484375 46.53125 36.375 47.5 
Q 32.28125 48.484375 27.875 48.484375 
Q 21.1875 48.484375 17.84375 46.4375 
Q 14.5 44.390625 14.5 40.28125 
Q 14.5 37.15625 16.890625 35.375 
Q 19.28125 33.59375 26.515625 31.984375 
L 29.59375 31.296875 
Q 39.15625 29.25 43.1875 25.515625 
Q 47.21875 21.78125 47.21875 15.09375 
Q 47.21875 7.46875 41.1875 3.015625 
Q 35.15625 -1.421875 24.609375 -1.421875 
Q 20.21875 -1.421875 15.453125 -0.5625 
Q 10.6875 0.296875 5.421875 2 
L 5.421875 11.28125 
Q 10.40625 8.6875 15.234375 7.390625 
Q 20.0625 6.109375 24.8125 6.109375 
Q 31.15625 6.109375 34.5625 8.28125 
Q 37.984375 10.453125 37.984375 14.40625 
Q 37.984375 18.0625 35.515625 20.015625 
Q 33.0625 21.96875 24.703125 23.78125 
L 21.578125 24.515625 
Q 13.234375 26.265625 9.515625 29.90625 
Q 5.8125 33.546875 5.8125 39.890625 
Q 5.8125 47.609375 11.28125 51.796875 
Q 16.75 56 26.8125 56 
Q 31.78125 56 36.171875 55.265625 
Q 40.578125 54.546875 44.28125 53.078125 
z
" id="DejaVuSans-115"/>
       </defs>
       <use xlink:href="#DejaVuSans-83"/>
       <use x="63.476562" xlink:href="#DejaVuSans-105"/>
       <use x="91.259766" xlink:href="#DejaVuSans-101"/>
       <use x="152.783203" xlink:href="#DejaVuSans-109"/>
       <use x="250.195312" xlink:href="#DejaVuSans-101"/>
       <use x="311.71875" xlink:href="#DejaVuSans-110"/>
       <use x="375.097656" xlink:href="#DejaVuSans-115"/>
      </g>
     </g>
    </g>
    <g id="xtick_2">
     <g id="text_2">
      <!-- GE -->
      <g style="fill:#262626;" transform="translate(427.326094 473.216563)scale(0.22 -0.22)">
       <defs>
        <path d="M 59.515625 10.40625 
L 59.515625 29.984375 
L 43.40625 29.984375 
L 43.40625 38.09375 
L 69.28125 38.09375 
L 69.28125 6.78125 
Q 63.578125 2.734375 56.6875 0.65625 
Q 49.8125 -1.421875 42 -1.421875 
Q 24.90625 -1.421875 15.25 8.5625 
Q 5.609375 18.5625 5.609375 36.375 
Q 5.609375 54.25 15.25 64.234375 
Q 24.90625 74.21875 42 74.21875 
Q 49.125 74.21875 55.546875 72.453125 
Q 61.96875 70.703125 67.390625 67.28125 
L 67.390625 56.78125 
Q 61.921875 61.421875 55.765625 63.765625 
Q 49.609375 66.109375 42.828125 66.109375 
Q 29.4375 66.109375 22.71875 58.640625 
Q 16.015625 51.171875 16.015625 36.375 
Q 16.015625 21.625 22.71875 14.15625 
Q 29.4375 6.6875 42.828125 6.6875 
Q 48.046875 6.6875 52.140625 7.59375 
Q 56.25 8.5 59.515625 10.40625 
z
" id="DejaVuSans-71"/>
        <path d="M 9.8125 72.90625 
L 55.90625 72.90625 
L 55.90625 64.59375 
L 19.671875 64.59375 
L 19.671875 43.015625 
L 54.390625 43.015625 
L 54.390625 34.71875 
L 19.671875 34.71875 
L 19.671875 8.296875 
L 56.78125 8.296875 
L 56.78125 0 
L 9.8125 0 
z
" id="DejaVuSans-69"/>
       </defs>
       <use xlink:href="#DejaVuSans-71"/>
       <use x="77.490234" xlink:href="#DejaVuSans-69"/>
      </g>
     </g>
    </g>
    <g id="xtick_3">
     <g id="text_3">
      <!-- Philips -->
      <g style="fill:#262626;" transform="translate(630.514688 473.216563)scale(0.22 -0.22)">
       <defs>
        <path d="M 19.671875 64.796875 
L 19.671875 37.40625 
L 32.078125 37.40625 
Q 38.96875 37.40625 42.71875 40.96875 
Q 46.484375 44.53125 46.484375 51.125 
Q 46.484375 57.671875 42.71875 61.234375 
Q 38.96875 64.796875 32.078125 64.796875 
z
M 9.8125 72.90625 
L 32.078125 72.90625 
Q 44.34375 72.90625 50.609375 67.359375 
Q 56.890625 61.8125 56.890625 51.125 
Q 56.890625 40.328125 50.609375 34.8125 
Q 44.34375 29.296875 32.078125 29.296875 
L 19.671875 29.296875 
L 19.671875 0 
L 9.8125 0 
z
" id="DejaVuSans-80"/>
        <path d="M 54.890625 33.015625 
L 54.890625 0 
L 45.90625 0 
L 45.90625 32.71875 
Q 45.90625 40.484375 42.875 44.328125 
Q 39.84375 48.1875 33.796875 48.1875 
Q 26.515625 48.1875 22.3125 43.546875 
Q 18.109375 38.921875 18.109375 30.90625 
L 18.109375 0 
L 9.078125 0 
L 9.078125 75.984375 
L 18.109375 75.984375 
L 18.109375 46.1875 
Q 21.34375 51.125 25.703125 53.5625 
Q 30.078125 56 35.796875 56 
Q 45.21875 56 50.046875 50.171875 
Q 54.890625 44.34375 54.890625 33.015625 
z
" id="DejaVuSans-104"/>
        <path d="M 9.421875 75.984375 
L 18.40625 75.984375 
L 18.40625 0 
L 9.421875 0 
z
" id="DejaVuSans-108"/>
        <path d="M 18.109375 8.203125 
L 18.109375 -20.796875 
L 9.078125 -20.796875 
L 9.078125 54.6875 
L 18.109375 54.6875 
L 18.109375 46.390625 
Q 20.953125 51.265625 25.265625 53.625 
Q 29.59375 56 35.59375 56 
Q 45.5625 56 51.78125 48.09375 
Q 58.015625 40.1875 58.015625 27.296875 
Q 58.015625 14.40625 51.78125 6.484375 
Q 45.5625 -1.421875 35.59375 -1.421875 
Q 29.59375 -1.421875 25.265625 0.953125 
Q 20.953125 3.328125 18.109375 8.203125 
z
M 48.6875 27.296875 
Q 48.6875 37.203125 44.609375 42.84375 
Q 40.53125 48.484375 33.40625 48.484375 
Q 26.265625 48.484375 22.1875 42.84375 
Q 18.109375 37.203125 18.109375 27.296875 
Q 18.109375 17.390625 22.1875 11.75 
Q 26.265625 6.109375 33.40625 6.109375 
Q 40.53125 6.109375 44.609375 11.75 
Q 48.6875 17.390625 48.6875 27.296875 
z
" id="DejaVuSans-112"/>
       </defs>
       <use xlink:href="#DejaVuSans-80"/>
       <use x="60.302734" xlink:href="#DejaVuSans-104"/>
       <use x="123.681641" xlink:href="#DejaVuSans-105"/>
       <use x="151.464844" xlink:href="#DejaVuSans-108"/>
       <use x="179.248047" xlink:href="#DejaVuSans-105"/>
       <use x="207.03125" xlink:href="#DejaVuSans-112"/>
       <use x="270.507812" xlink:href="#DejaVuSans-115"/>
      </g>
     </g>
    </g>
    <g id="text_4">
     <!-- MRI Manufacturer Comparison -->
     <g style="fill:#262626;" transform="translate(260.709375 500.028125)scale(0.24 -0.24)">
      <defs>
       <path d="M 9.8125 72.90625 
L 24.515625 72.90625 
L 43.109375 23.296875 
L 61.8125 72.90625 
L 76.515625 72.90625 
L 76.515625 0 
L 66.890625 0 
L 66.890625 64.015625 
L 48.09375 14.015625 
L 38.1875 14.015625 
L 19.390625 64.015625 
L 19.390625 0 
L 9.8125 0 
z
" id="DejaVuSans-77"/>
       <path d="M 44.390625 34.1875 
Q 47.5625 33.109375 50.5625 29.59375 
Q 53.5625 26.078125 56.59375 19.921875 
L 66.609375 0 
L 56 0 
L 46.6875 18.703125 
Q 43.0625 26.03125 39.671875 28.421875 
Q 36.28125 30.8125 30.421875 30.8125 
L 19.671875 30.8125 
L 19.671875 0 
L 9.8125 0 
L 9.8125 72.90625 
L 32.078125 72.90625 
Q 44.578125 72.90625 50.734375 67.671875 
Q 56.890625 62.453125 56.890625 51.90625 
Q 56.890625 45.015625 53.6875 40.46875 
Q 50.484375 35.9375 44.390625 34.1875 
z
M 19.671875 64.796875 
L 19.671875 38.921875 
L 32.078125 38.921875 
Q 39.203125 38.921875 42.84375 42.21875 
Q 46.484375 45.515625 46.484375 51.90625 
Q 46.484375 58.296875 42.84375 61.546875 
Q 39.203125 64.796875 32.078125 64.796875 
z
" id="DejaVuSans-82"/>
       <path d="M 9.8125 72.90625 
L 19.671875 72.90625 
L 19.671875 0 
L 9.8125 0 
z
" id="DejaVuSans-73"/>
       <path id="DejaVuSans-32"/>
       <path d="M 34.28125 27.484375 
Q 23.390625 27.484375 19.1875 25 
Q 14.984375 22.515625 14.984375 16.5 
Q 14.984375 11.71875 18.140625 8.90625 
Q 21.296875 6.109375 26.703125 6.109375 
Q 34.1875 6.109375 38.703125 11.40625 
Q 43.21875 16.703125 43.21875 25.484375 
L 43.21875 27.484375 
z
M 52.203125 31.203125 
L 52.203125 0 
L 43.21875 0 
L 43.21875 8.296875 
Q 40.140625 3.328125 35.546875 0.953125 
Q 30.953125 -1.421875 24.3125 -1.421875 
Q 15.921875 -1.421875 10.953125 3.296875 
Q 6 8.015625 6 15.921875 
Q 6 25.140625 12.171875 29.828125 
Q 18.359375 34.515625 30.609375 34.515625 
L 43.21875 34.515625 
L 43.21875 35.40625 
Q 43.21875 41.609375 39.140625 45 
Q 35.0625 48.390625 27.6875 48.390625 
Q 23 48.390625 18.546875 47.265625 
Q 14.109375 46.140625 10.015625 43.890625 
L 10.015625 52.203125 
Q 14.9375 54.109375 19.578125 55.046875 
Q 24.21875 56 28.609375 56 
Q 40.484375 56 46.34375 49.84375 
Q 52.203125 43.703125 52.203125 31.203125 
z
" id="DejaVuSans-97"/>
       <path d="M 8.5 21.578125 
L 8.5 54.6875 
L 17.484375 54.6875 
L 17.484375 21.921875 
Q 17.484375 14.15625 20.5 10.265625 
Q 23.53125 6.390625 29.59375 6.390625 
Q 36.859375 6.390625 41.078125 11.03125 
Q 45.3125 15.671875 45.3125 23.6875 
L 45.3125 54.6875 
L 54.296875 54.6875 
L 54.296875 0 
L 45.3125 0 
L 45.3125 8.40625 
Q 42.046875 3.421875 37.71875 1 
Q 33.40625 -1.421875 27.6875 -1.421875 
Q 18.265625 -1.421875 13.375 4.4375 
Q 8.5 10.296875 8.5 21.578125 
z
M 31.109375 56 
z
" id="DejaVuSans-117"/>
       <path d="M 37.109375 75.984375 
L 37.109375 68.5 
L 28.515625 68.5 
Q 23.6875 68.5 21.796875 66.546875 
Q 19.921875 64.59375 19.921875 59.515625 
L 19.921875 54.6875 
L 34.71875 54.6875 
L 34.71875 47.703125 
L 19.921875 47.703125 
L 19.921875 0 
L 10.890625 0 
L 10.890625 47.703125 
L 2.296875 47.703125 
L 2.296875 54.6875 
L 10.890625 54.6875 
L 10.890625 58.5 
Q 10.890625 67.625 15.140625 71.796875 
Q 19.390625 75.984375 28.609375 75.984375 
z
" id="DejaVuSans-102"/>
       <path d="M 48.78125 52.59375 
L 48.78125 44.1875 
Q 44.96875 46.296875 41.140625 47.34375 
Q 37.3125 48.390625 33.40625 48.390625 
Q 24.65625 48.390625 19.8125 42.84375 
Q 14.984375 37.3125 14.984375 27.296875 
Q 14.984375 17.28125 19.8125 11.734375 
Q 24.65625 6.203125 33.40625 6.203125 
Q 37.3125 6.203125 41.140625 7.25 
Q 44.96875 8.296875 48.78125 10.40625 
L 48.78125 2.09375 
Q 45.015625 0.34375 40.984375 -0.53125 
Q 36.96875 -1.421875 32.421875 -1.421875 
Q 20.0625 -1.421875 12.78125 6.34375 
Q 5.515625 14.109375 5.515625 27.296875 
Q 5.515625 40.671875 12.859375 48.328125 
Q 20.21875 56 33.015625 56 
Q 37.15625 56 41.109375 55.140625 
Q 45.0625 54.296875 48.78125 52.59375 
z
" id="DejaVuSans-99"/>
       <path d="M 18.3125 70.21875 
L 18.3125 54.6875 
L 36.8125 54.6875 
L 36.8125 47.703125 
L 18.3125 47.703125 
L 18.3125 18.015625 
Q 18.3125 11.328125 20.140625 9.421875 
Q 21.96875 7.515625 27.59375 7.515625 
L 36.8125 7.515625 
L 36.8125 0 
L 27.59375 0 
Q 17.1875 0 13.234375 3.875 
Q 9.28125 7.765625 9.28125 18.015625 
L 9.28125 47.703125 
L 2.6875 47.703125 
L 2.6875 54.6875 
L 9.28125 54.6875 
L 9.28125 70.21875 
z
" id="DejaVuSans-116"/>
       <path d="M 41.109375 46.296875 
Q 39.59375 47.171875 37.8125 47.578125 
Q 36.03125 48 33.890625 48 
Q 26.265625 48 22.1875 43.046875 
Q 18.109375 38.09375 18.109375 28.8125 
L 18.109375 0 
L 9.078125 0 
L 9.078125 54.6875 
L 18.109375 54.6875 
L 18.109375 46.1875 
Q 20.953125 51.171875 25.484375 53.578125 
Q 30.03125 56 36.53125 56 
Q 37.453125 56 38.578125 55.875 
Q 39.703125 55.765625 41.0625 55.515625 
z
" id="DejaVuSans-114"/>
       <path d="M 64.40625 67.28125 
L 64.40625 56.890625 
Q 59.421875 61.53125 53.78125 63.8125 
Q 48.140625 66.109375 41.796875 66.109375 
Q 29.296875 66.109375 22.65625 58.46875 
Q 16.015625 50.828125 16.015625 36.375 
Q 16.015625 21.96875 22.65625 14.328125 
Q 29.296875 6.6875 41.796875 6.6875 
Q 48.140625 6.6875 53.78125 8.984375 
Q 59.421875 11.28125 64.40625 15.921875 
L 64.40625 5.609375 
Q 59.234375 2.09375 53.4375 0.328125 
Q 47.65625 -1.421875 41.21875 -1.421875 
Q 24.65625 -1.421875 15.125 8.703125 
Q 5.609375 18.84375 5.609375 36.375 
Q 5.609375 53.953125 15.125 64.078125 
Q 24.65625 74.21875 41.21875 74.21875 
Q 47.75 74.21875 53.53125 72.484375 
Q 59.328125 70.75 64.40625 67.28125 
z
" id="DejaVuSans-67"/>
       <path d="M 30.609375 48.390625 
Q 23.390625 48.390625 19.1875 42.75 
Q 14.984375 37.109375 14.984375 27.296875 
Q 14.984375 17.484375 19.15625 11.84375 
Q 23.34375 6.203125 30.609375 6.203125 
Q 37.796875 6.203125 41.984375 11.859375 
Q 46.1875 17.53125 46.1875 27.296875 
Q 46.1875 37.015625 41.984375 42.703125 
Q 37.796875 48.390625 30.609375 48.390625 
z
M 30.609375 56 
Q 42.328125 56 49.015625 48.375 
Q 55.71875 40.765625 55.71875 27.296875 
Q 55.71875 13.875 49.015625 6.21875 
Q 42.328125 -1.421875 30.609375 -1.421875 
Q 18.84375 -1.421875 12.171875 6.21875 
Q 5.515625 13.875 5.515625 27.296875 
Q 5.515625 40.765625 12.171875 48.375 
Q 18.84375 56 30.609375 56 
z
" id="DejaVuSans-111"/>
      </defs>
      <use xlink:href="#DejaVuSans-77"/>
      <use x="86.279297" xlink:href="#DejaVuSans-82"/>
      <use x="155.761719" xlink:href="#DejaVuSans-73"/>
      <use x="185.253906" xlink:href="#DejaVuSans-32"/>
      <use x="217.041016" xlink:href="#DejaVuSans-77"/>
      <use x="303.320312" xlink:href="#DejaVuSans-97"/>
      <use x="364.599609" xlink:href="#DejaVuSans-110"/>
      <use x="427.978516" xlink:href="#DejaVuSans-117"/>
      <use x="491.357422" xlink:href="#DejaVuSans-102"/>
      <use x="526.5625" xlink:href="#DejaVuSans-97"/>
      <use x="587.841797" xlink:href="#DejaVuSans-99"/>
      <use x="642.822266" xlink:href="#DejaVuSans-116"/>
      <use x="682.03125" xlink:href="#DejaVuSans-117"/>
      <use x="745.410156" xlink:href="#DejaVuSans-114"/>
      <use x="784.273438" xlink:href="#DejaVuSans-101"/>
      <use x="845.796875" xlink:href="#DejaVuSans-114"/>
      <use x="886.910156" xlink:href="#DejaVuSans-32"/>
      <use x="918.697266" xlink:href="#DejaVuSans-67"/>
      <use x="988.521484" xlink:href="#DejaVuSans-111"/>
      <use x="1049.703125" xlink:href="#DejaVuSans-109"/>
      <use x="1147.115234" xlink:href="#DejaVuSans-112"/>
      <use x="1210.591797" xlink:href="#DejaVuSans-97"/>
      <use x="1271.871094" xlink:href="#DejaVuSans-114"/>
      <use x="1312.984375" xlink:href="#DejaVuSans-105"/>
      <use x="1340.767578" xlink:href="#DejaVuSans-115"/>
      <use x="1392.867188" xlink:href="#DejaVuSans-111"/>
      <use x="1454.048828" xlink:href="#DejaVuSans-110"/>
     </g>
    </g>
   </g>
   <g id="matplotlib.axis_2">
    <g id="ytick_1">
     <g id="line2d_1">
      <path clip-path="url(#pc0408c8eae)" d="M 108 416.975429 
L 777.6 416.975429 
" style="fill:none;stroke:#cccccc;stroke-linecap:round;stroke-width:2;"/>
     </g>
     <g id="text_5">
      <!-- 0.8 -->
      <g style="fill:#262626;" transform="translate(57.513125 425.33371)scale(0.22 -0.22)">
       <defs>
        <path d="M 31.78125 66.40625 
Q 24.171875 66.40625 20.328125 58.90625 
Q 16.5 51.421875 16.5 36.375 
Q 16.5 21.390625 20.328125 13.890625 
Q 24.171875 6.390625 31.78125 6.390625 
Q 39.453125 6.390625 43.28125 13.890625 
Q 47.125 21.390625 47.125 36.375 
Q 47.125 51.421875 43.28125 58.90625 
Q 39.453125 66.40625 31.78125 66.40625 
z
M 31.78125 74.21875 
Q 44.046875 74.21875 50.515625 64.515625 
Q 56.984375 54.828125 56.984375 36.375 
Q 56.984375 17.96875 50.515625 8.265625 
Q 44.046875 -1.421875 31.78125 -1.421875 
Q 19.53125 -1.421875 13.0625 8.265625 
Q 6.59375 17.96875 6.59375 36.375 
Q 6.59375 54.828125 13.0625 64.515625 
Q 19.53125 74.21875 31.78125 74.21875 
z
" id="DejaVuSans-48"/>
        <path d="M 10.6875 12.40625 
L 21 12.40625 
L 21 0 
L 10.6875 0 
z
" id="DejaVuSans-46"/>
        <path d="M 31.78125 34.625 
Q 24.75 34.625 20.71875 30.859375 
Q 16.703125 27.09375 16.703125 20.515625 
Q 16.703125 13.921875 20.71875 10.15625 
Q 24.75 6.390625 31.78125 6.390625 
Q 38.8125 6.390625 42.859375 10.171875 
Q 46.921875 13.96875 46.921875 20.515625 
Q 46.921875 27.09375 42.890625 30.859375 
Q 38.875 34.625 31.78125 34.625 
z
M 21.921875 38.8125 
Q 15.578125 40.375 12.03125 44.71875 
Q 8.5 49.078125 8.5 55.328125 
Q 8.5 64.0625 14.71875 69.140625 
Q 20.953125 74.21875 31.78125 74.21875 
Q 42.671875 74.21875 48.875 69.140625 
Q 55.078125 64.0625 55.078125 55.328125 
Q 55.078125 49.078125 51.53125 44.71875 
Q 48 40.375 41.703125 38.8125 
Q 48.828125 37.15625 52.796875 32.3125 
Q 56.78125 27.484375 56.78125 20.515625 
Q 56.78125 9.90625 50.3125 4.234375 
Q 43.84375 -1.421875 31.78125 -1.421875 
Q 19.734375 -1.421875 13.25 4.234375 
Q 6.78125 9.90625 6.78125 20.515625 
Q 6.78125 27.484375 10.78125 32.3125 
Q 14.796875 37.15625 21.921875 38.8125 
z
M 18.3125 54.390625 
Q 18.3125 48.734375 21.84375 45.5625 
Q 25.390625 42.390625 31.78125 42.390625 
Q 38.140625 42.390625 41.71875 45.5625 
Q 45.3125 48.734375 45.3125 54.390625 
Q 45.3125 60.0625 41.71875 63.234375 
Q 38.140625 66.40625 31.78125 66.40625 
Q 25.390625 66.40625 21.84375 63.234375 
Q 18.3125 60.0625 18.3125 54.390625 
z
" id="DejaVuSans-56"/>
       </defs>
       <use xlink:href="#DejaVuSans-48"/>
       <use x="63.623047" xlink:href="#DejaVuSans-46"/>
       <use x="95.410156" xlink:href="#DejaVuSans-56"/>
      </g>
     </g>
    </g>
    <g id="ytick_2">
     <g id="line2d_2">
      <path clip-path="url(#pc0408c8eae)" d="M 108 360.789983 
L 777.6 360.789983 
" style="fill:none;stroke:#cccccc;stroke-linecap:round;stroke-width:2;"/>
     </g>
     <g id="text_6">
      <!-- 1.0 -->
      <g style="fill:#262626;" transform="translate(57.513125 369.148265)scale(0.22 -0.22)">
       <defs>
        <path d="M 12.40625 8.296875 
L 28.515625 8.296875 
L 28.515625 63.921875 
L 10.984375 60.40625 
L 10.984375 69.390625 
L 28.421875 72.90625 
L 38.28125 72.90625 
L 38.28125 8.296875 
L 54.390625 8.296875 
L 54.390625 0 
L 12.40625 0 
z
" id="DejaVuSans-49"/>
       </defs>
       <use xlink:href="#DejaVuSans-49"/>
       <use x="63.623047" xlink:href="#DejaVuSans-46"/>
       <use x="95.410156" xlink:href="#DejaVuSans-48"/>
      </g>
     </g>
    </g>
    <g id="ytick_3">
     <g id="line2d_3">
      <path clip-path="url(#pc0408c8eae)" d="M 108 304.604537 
L 777.6 304.604537 
" style="fill:none;stroke:#cccccc;stroke-linecap:round;stroke-width:2;"/>
     </g>
     <g id="text_7">
      <!-- 1.2 -->
      <g style="fill:#262626;" transform="translate(57.513125 312.962819)scale(0.22 -0.22)">
       <defs>
        <path d="M 19.1875 8.296875 
L 53.609375 8.296875 
L 53.609375 0 
L 7.328125 0 
L 7.328125 8.296875 
Q 12.9375 14.109375 22.625 23.890625 
Q 32.328125 33.6875 34.8125 36.53125 
Q 39.546875 41.84375 41.421875 45.53125 
Q 43.3125 49.21875 43.3125 52.78125 
Q 43.3125 58.59375 39.234375 62.25 
Q 35.15625 65.921875 28.609375 65.921875 
Q 23.96875 65.921875 18.8125 64.3125 
Q 13.671875 62.703125 7.8125 59.421875 
L 7.8125 69.390625 
Q 13.765625 71.78125 18.9375 73 
Q 24.125 74.21875 28.421875 74.21875 
Q 39.75 74.21875 46.484375 68.546875 
Q 53.21875 62.890625 53.21875 53.421875 
Q 53.21875 48.921875 51.53125 44.890625 
Q 49.859375 40.875 45.40625 35.40625 
Q 44.1875 33.984375 37.640625 27.21875 
Q 31.109375 20.453125 19.1875 8.296875 
z
" id="DejaVuSans-50"/>
       </defs>
       <use xlink:href="#DejaVuSans-49"/>
       <use x="63.623047" xlink:href="#DejaVuSans-46"/>
       <use x="95.410156" xlink:href="#DejaVuSans-50"/>
      </g>
     </g>
    </g>
    <g id="ytick_4">
     <g id="line2d_4">
      <path clip-path="url(#pc0408c8eae)" d="M 108 248.419092 
L 777.6 248.419092 
" style="fill:none;stroke:#cccccc;stroke-linecap:round;stroke-width:2;"/>
     </g>
     <g id="text_8">
      <!-- 1.4 -->
      <g style="fill:#262626;" transform="translate(57.513125 256.777373)scale(0.22 -0.22)">
       <defs>
        <path d="M 37.796875 64.3125 
L 12.890625 25.390625 
L 37.796875 25.390625 
z
M 35.203125 72.90625 
L 47.609375 72.90625 
L 47.609375 25.390625 
L 58.015625 25.390625 
L 58.015625 17.1875 
L 47.609375 17.1875 
L 47.609375 0 
L 37.796875 0 
L 37.796875 17.1875 
L 4.890625 17.1875 
L 4.890625 26.703125 
z
" id="DejaVuSans-52"/>
       </defs>
       <use xlink:href="#DejaVuSans-49"/>
       <use x="63.623047" xlink:href="#DejaVuSans-46"/>
       <use x="95.410156" xlink:href="#DejaVuSans-52"/>
      </g>
     </g>
    </g>
    <g id="ytick_5">
     <g id="line2d_5">
      <path clip-path="url(#pc0408c8eae)" d="M 108 192.233646 
L 777.6 192.233646 
" style="fill:none;stroke:#cccccc;stroke-linecap:round;stroke-width:2;"/>
     </g>
     <g id="text_9">
      <!-- 1.6 -->
      <g style="fill:#262626;" transform="translate(57.513125 200.591927)scale(0.22 -0.22)">
       <defs>
        <path d="M 33.015625 40.375 
Q 26.375 40.375 22.484375 35.828125 
Q 18.609375 31.296875 18.609375 23.390625 
Q 18.609375 15.53125 22.484375 10.953125 
Q 26.375 6.390625 33.015625 6.390625 
Q 39.65625 6.390625 43.53125 10.953125 
Q 47.40625 15.53125 47.40625 23.390625 
Q 47.40625 31.296875 43.53125 35.828125 
Q 39.65625 40.375 33.015625 40.375 
z
M 52.59375 71.296875 
L 52.59375 62.3125 
Q 48.875 64.0625 45.09375 64.984375 
Q 41.3125 65.921875 37.59375 65.921875 
Q 27.828125 65.921875 22.671875 59.328125 
Q 17.53125 52.734375 16.796875 39.40625 
Q 19.671875 43.65625 24.015625 45.921875 
Q 28.375 48.1875 33.59375 48.1875 
Q 44.578125 48.1875 50.953125 41.515625 
Q 57.328125 34.859375 57.328125 23.390625 
Q 57.328125 12.15625 50.6875 5.359375 
Q 44.046875 -1.421875 33.015625 -1.421875 
Q 20.359375 -1.421875 13.671875 8.265625 
Q 6.984375 17.96875 6.984375 36.375 
Q 6.984375 53.65625 15.1875 63.9375 
Q 23.390625 74.21875 37.203125 74.21875 
Q 40.921875 74.21875 44.703125 73.484375 
Q 48.484375 72.75 52.59375 71.296875 
z
" id="DejaVuSans-54"/>
       </defs>
       <use xlink:href="#DejaVuSans-49"/>
       <use x="63.623047" xlink:href="#DejaVuSans-46"/>
       <use x="95.410156" xlink:href="#DejaVuSans-54"/>
      </g>
     </g>
    </g>
    <g id="ytick_6">
     <g id="line2d_6">
      <path clip-path="url(#pc0408c8eae)" d="M 108 136.0482 
L 777.6 136.0482 
" style="fill:none;stroke:#cccccc;stroke-linecap:round;stroke-width:2;"/>
     </g>
     <g id="text_10">
      <!-- 1.8 -->
      <g style="fill:#262626;" transform="translate(57.513125 144.406481)scale(0.22 -0.22)">
       <use xlink:href="#DejaVuSans-49"/>
       <use x="63.623047" xlink:href="#DejaVuSans-46"/>
       <use x="95.410156" xlink:href="#DejaVuSans-56"/>
      </g>
     </g>
    </g>
    <g id="ytick_7">
     <g id="line2d_7">
      <path clip-path="url(#pc0408c8eae)" d="M 108 79.862754 
L 777.6 79.862754 
" style="fill:none;stroke:#cccccc;stroke-linecap:round;stroke-width:2;"/>
     </g>
     <g id="text_11">
      <!-- 2.0 -->
      <g style="fill:#262626;" transform="translate(57.513125 88.221035)scale(0.22 -0.22)">
       <use xlink:href="#DejaVuSans-50"/>
       <use x="63.623047" xlink:href="#DejaVuSans-46"/>
       <use x="95.410156" xlink:href="#DejaVuSans-48"/>
      </g>
     </g>
    </g>
    <g id="text_12">
     <!-- total intracranial volume (mm$^3$) -->
     <g style="fill:#262626;" transform="translate(48.521875 441.06)rotate(-90)scale(0.24 -0.24)">
      <defs>
       <path d="M 2.984375 54.6875 
L 12.5 54.6875 
L 29.59375 8.796875 
L 46.6875 54.6875 
L 56.203125 54.6875 
L 35.6875 0 
L 23.484375 0 
z
" id="DejaVuSans-118"/>
       <path d="M 31 75.875 
Q 24.46875 64.65625 21.28125 53.65625 
Q 18.109375 42.671875 18.109375 31.390625 
Q 18.109375 20.125 21.3125 9.0625 
Q 24.515625 -2 31 -13.1875 
L 23.1875 -13.1875 
Q 15.875 -1.703125 12.234375 9.375 
Q 8.59375 20.453125 8.59375 31.390625 
Q 8.59375 42.28125 12.203125 53.3125 
Q 15.828125 64.359375 23.1875 75.875 
z
" id="DejaVuSans-40"/>
       <path d="M 40.578125 39.3125 
Q 47.65625 37.796875 51.625 33 
Q 55.609375 28.21875 55.609375 21.1875 
Q 55.609375 10.40625 48.1875 4.484375 
Q 40.765625 -1.421875 27.09375 -1.421875 
Q 22.515625 -1.421875 17.65625 -0.515625 
Q 12.796875 0.390625 7.625 2.203125 
L 7.625 11.71875 
Q 11.71875 9.328125 16.59375 8.109375 
Q 21.484375 6.890625 26.8125 6.890625 
Q 36.078125 6.890625 40.9375 10.546875 
Q 45.796875 14.203125 45.796875 21.1875 
Q 45.796875 27.640625 41.28125 31.265625 
Q 36.765625 34.90625 28.71875 34.90625 
L 20.21875 34.90625 
L 20.21875 43.015625 
L 29.109375 43.015625 
Q 36.375 43.015625 40.234375 45.921875 
Q 44.09375 48.828125 44.09375 54.296875 
Q 44.09375 59.90625 40.109375 62.90625 
Q 36.140625 65.921875 28.71875 65.921875 
Q 24.65625 65.921875 20.015625 65.03125 
Q 15.375 64.15625 9.8125 62.3125 
L 9.8125 71.09375 
Q 15.4375 72.65625 20.34375 73.4375 
Q 25.25 74.21875 29.59375 74.21875 
Q 40.828125 74.21875 47.359375 69.109375 
Q 53.90625 64.015625 53.90625 55.328125 
Q 53.90625 49.265625 50.4375 45.09375 
Q 46.96875 40.921875 40.578125 39.3125 
z
" id="DejaVuSans-51"/>
       <path d="M 8.015625 75.875 
L 15.828125 75.875 
Q 23.140625 64.359375 26.78125 53.3125 
Q 30.421875 42.28125 30.421875 31.390625 
Q 30.421875 20.453125 26.78125 9.375 
Q 23.140625 -1.703125 15.828125 -13.1875 
L 8.015625 -13.1875 
Q 14.5 -2 17.703125 9.0625 
Q 20.90625 20.125 20.90625 31.390625 
Q 20.90625 42.671875 17.703125 53.65625 
Q 14.5 64.65625 8.015625 75.875 
z
" id="DejaVuSans-41"/>
      </defs>
      <use transform="translate(0 0.765625)" xlink:href="#DejaVuSans-116"/>
      <use transform="translate(39.208984 0.765625)" xlink:href="#DejaVuSans-111"/>
      <use transform="translate(100.390625 0.765625)" xlink:href="#DejaVuSans-116"/>
      <use transform="translate(139.599609 0.765625)" xlink:href="#DejaVuSans-97"/>
      <use transform="translate(200.878906 0.765625)" xlink:href="#DejaVuSans-108"/>
      <use transform="translate(228.662109 0.765625)" xlink:href="#DejaVuSans-32"/>
      <use transform="translate(260.449219 0.765625)" xlink:href="#DejaVuSans-105"/>
      <use transform="translate(288.232422 0.765625)" xlink:href="#DejaVuSans-110"/>
      <use transform="translate(351.611328 0.765625)" xlink:href="#DejaVuSans-116"/>
      <use transform="translate(390.820312 0.765625)" xlink:href="#DejaVuSans-114"/>
      <use transform="translate(431.933594 0.765625)" xlink:href="#DejaVuSans-97"/>
      <use transform="translate(493.212891 0.765625)" xlink:href="#DejaVuSans-99"/>
      <use transform="translate(548.193359 0.765625)" xlink:href="#DejaVuSans-114"/>
      <use transform="translate(589.306641 0.765625)" xlink:href="#DejaVuSans-97"/>
      <use transform="translate(650.585938 0.765625)" xlink:href="#DejaVuSans-110"/>
      <use transform="translate(713.964844 0.765625)" xlink:href="#DejaVuSans-105"/>
      <use transform="translate(741.748047 0.765625)" xlink:href="#DejaVuSans-97"/>
      <use transform="translate(803.027344 0.765625)" xlink:href="#DejaVuSans-108"/>
      <use transform="translate(830.810547 0.765625)" xlink:href="#DejaVuSans-32"/>
      <use transform="translate(862.597656 0.765625)" xlink:href="#DejaVuSans-118"/>
      <use transform="translate(921.777344 0.765625)" xlink:href="#DejaVuSans-111"/>
      <use transform="translate(982.958984 0.765625)" xlink:href="#DejaVuSans-108"/>
      <use transform="translate(1010.742188 0.765625)" xlink:href="#DejaVuSans-117"/>
      <use transform="translate(1074.121094 0.765625)" xlink:href="#DejaVuSans-109"/>
      <use transform="translate(1171.533203 0.765625)" xlink:href="#DejaVuSans-101"/>
      <use transform="translate(1233.056641 0.765625)" xlink:href="#DejaVuSans-32"/>
      <use transform="translate(1264.84375 0.765625)" xlink:href="#DejaVuSans-40"/>
      <use transform="translate(1303.857422 0.765625)" xlink:href="#DejaVuSans-109"/>
      <use transform="translate(1401.269531 0.765625)" xlink:href="#DejaVuSans-109"/>
      <use transform="translate(1499.638672 39.046875)scale(0.7)" xlink:href="#DejaVuSans-51"/>
      <use transform="translate(1546.90918 0.765625)" xlink:href="#DejaVuSans-41"/>
     </g>
    </g>
    <g id="text_13">
     <!-- 1e6 -->
     <g style="fill:#262626;" transform="translate(108 57.48)scale(0.22 -0.22)">
      <use xlink:href="#DejaVuSans-49"/>
      <use x="63.623047" xlink:href="#DejaVuSans-101"/>
      <use x="125.146484" xlink:href="#DejaVuSans-54"/>
     </g>
    </g>
   </g>
   <g id="patch_3">
    <path clip-path="url(#pc0408c8eae)" d="M 130.9152 251.749877 
L 189.2448 251.749877 
L 189.2448 200.023603 
L 130.9152 200.023603 
L 130.9152 251.749877 
z
" style="fill:#72b6a1;stroke:#595959;stroke-linejoin:miter;stroke-width:3;"/>
   </g>
   <g id="patch_4">
    <path clip-path="url(#pc0408c8eae)" d="M 190.4352 251.364726 
L 248.7648 251.364726 
L 248.7648 199.227947 
L 190.4352 199.227947 
L 190.4352 251.364726 
z
" style="fill:#e99675;stroke:#595959;stroke-linejoin:miter;stroke-width:3;"/>
   </g>
   <g id="patch_5">
    <path clip-path="url(#pc0408c8eae)" d="M 249.9552 321.041842 
L 308.2848 321.041842 
L 308.2848 277.07513 
L 249.9552 277.07513 
L 249.9552 321.041842 
z
" style="fill:#95a3c3;stroke:#595959;stroke-linejoin:miter;stroke-width:3;"/>
   </g>
   <g id="patch_6">
    <path clip-path="url(#pc0408c8eae)" d="M 354.1152 249.124275 
L 412.4448 249.124275 
L 412.4448 200.750095 
L 354.1152 200.750095 
L 354.1152 249.124275 
z
" style="fill:#72b6a1;stroke:#595959;stroke-linejoin:miter;stroke-width:3;"/>
   </g>
   <g id="patch_7">
    <path clip-path="url(#pc0408c8eae)" d="M 413.6352 249.102721 
L 471.9648 249.102721 
L 471.9648 200.111133 
L 413.6352 200.111133 
L 413.6352 249.102721 
z
" style="fill:#e99675;stroke:#595959;stroke-linejoin:miter;stroke-width:3;"/>
   </g>
   <g id="patch_8">
    <path clip-path="url(#pc0408c8eae)" d="M 473.1552 317.568627 
L 531.4848 317.568627 
L 531.4848 275.302957 
L 473.1552 275.302957 
L 473.1552 317.568627 
z
" style="fill:#95a3c3;stroke:#595959;stroke-linejoin:miter;stroke-width:3;"/>
   </g>
   <g id="patch_9">
    <path clip-path="url(#pc0408c8eae)" d="M 577.3152 250.979195 
L 635.6448 250.979195 
L 635.6448 205.33001 
L 577.3152 205.33001 
L 577.3152 250.979195 
z
" style="fill:#72b6a1;stroke:#595959;stroke-linejoin:miter;stroke-width:3;"/>
   </g>
   <g id="patch_10">
    <path clip-path="url(#pc0408c8eae)" d="M 636.8352 250.816946 
L 695.1648 250.816946 
L 695.1648 205.356937 
L 636.8352 205.356937 
L 636.8352 250.816946 
z
" style="fill:#e99675;stroke:#595959;stroke-linejoin:miter;stroke-width:3;"/>
   </g>
   <g id="patch_11">
    <path clip-path="url(#pc0408c8eae)" d="M 696.3552 323.108273 
L 754.6848 323.108273 
L 754.6848 282.800434 
L 696.3552 282.800434 
L 696.3552 323.108273 
z
" style="fill:#95a3c3;stroke:#595959;stroke-linejoin:miter;stroke-width:3;"/>
   </g>
   <g id="patch_12">
    <path clip-path="url(#pc0408c8eae)" d="M 219.6 641.717213 
L 219.6 641.717213 
L 219.6 641.717213 
L 219.6 641.717213 
z
" style="fill:#72b6a1;stroke:#595959;stroke-linejoin:miter;stroke-width:1.5;"/>
   </g>
   <g id="patch_13">
    <path clip-path="url(#pc0408c8eae)" d="M 219.6 641.717213 
L 219.6 641.717213 
L 219.6 641.717213 
L 219.6 641.717213 
z
" style="fill:#e99675;stroke:#595959;stroke-linejoin:miter;stroke-width:1.5;"/>
   </g>
   <g id="patch_14">
    <path clip-path="url(#pc0408c8eae)" d="M 219.6 641.717213 
L 219.6 641.717213 
L 219.6 641.717213 
L 219.6 641.717213 
z
" style="fill:#95a3c3;stroke:#595959;stroke-linejoin:miter;stroke-width:1.5;"/>
   </g>
   <g id="line2d_8">
    <path clip-path="url(#pc0408c8eae)" d="M 160.08 251.749877 
L 160.08 328.784843 
" style="fill:none;stroke:#595959;stroke-linecap:round;stroke-width:3;"/>
   </g>
   <g id="line2d_9">
    <path clip-path="url(#pc0408c8eae)" d="M 160.08 200.023603 
L 160.08 123.113636 
" style="fill:none;stroke:#595959;stroke-linecap:round;stroke-width:3;"/>
   </g>
   <g id="line2d_10">
    <path clip-path="url(#pc0408c8eae)" d="M 145.4976 328.784843 
L 174.6624 328.784843 
" style="fill:none;stroke:#595959;stroke-linecap:round;stroke-width:3;"/>
   </g>
   <g id="line2d_11">
    <path clip-path="url(#pc0408c8eae)" d="M 145.4976 123.113636 
L 174.6624 123.113636 
" style="fill:none;stroke:#595959;stroke-linecap:round;stroke-width:3;"/>
   </g>
   <g id="line2d_12">
    <defs>
     <path d="M -0 3.535534 
L 2.12132 0 
L -0 -3.535534 
L -2.12132 -0 
z
" id="m6229bb8091" style="stroke:#595959;stroke-linejoin:miter;"/>
    </defs>
    <g clip-path="url(#pc0408c8eae)">
     <use style="fill:#595959;stroke:#595959;stroke-linejoin:miter;" x="160.08" xlink:href="#m6229bb8091" y="338.229617"/>
     <use style="fill:#595959;stroke:#595959;stroke-linejoin:miter;" x="160.08" xlink:href="#m6229bb8091" y="333.33755"/>
     <use style="fill:#595959;stroke:#595959;stroke-linejoin:miter;" x="160.08" xlink:href="#m6229bb8091" y="352.795272"/>
     <use style="fill:#595959;stroke:#595959;stroke-linejoin:miter;" x="160.08" xlink:href="#m6229bb8091" y="335.05129"/>
     <use style="fill:#595959;stroke:#595959;stroke-linejoin:miter;" x="160.08" xlink:href="#m6229bb8091" y="353.920821"/>
     <use style="fill:#595959;stroke:#595959;stroke-linejoin:miter;" x="160.08" xlink:href="#m6229bb8091" y="345.429725"/>
     <use style="fill:#595959;stroke:#595959;stroke-linejoin:miter;" x="160.08" xlink:href="#m6229bb8091" y="330.741586"/>
     <use style="fill:#595959;stroke:#595959;stroke-linejoin:miter;" x="160.08" xlink:href="#m6229bb8091" y="335.929272"/>
     <use style="fill:#595959;stroke:#595959;stroke-linejoin:miter;" x="160.08" xlink:href="#m6229bb8091" y="334.052678"/>
     <use style="fill:#595959;stroke:#595959;stroke-linejoin:miter;" x="160.08" xlink:href="#m6229bb8091" y="338.051143"/>
     <use style="fill:#595959;stroke:#595959;stroke-linejoin:miter;" x="160.08" xlink:href="#m6229bb8091" y="351.392996"/>
     <use style="fill:#595959;stroke:#595959;stroke-linejoin:miter;" x="160.08" xlink:href="#m6229bb8091" y="376.006547"/>
     <use style="fill:#595959;stroke:#595959;stroke-linejoin:miter;" x="160.08" xlink:href="#m6229bb8091" y="339.811602"/>
     <use style="fill:#595959;stroke:#595959;stroke-linejoin:miter;" x="160.08" xlink:href="#m6229bb8091" y="117.235627"/>
     <use style="fill:#595959;stroke:#595959;stroke-linejoin:miter;" x="160.08" xlink:href="#m6229bb8091" y="119.606512"/>
     <use style="fill:#595959;stroke:#595959;stroke-linejoin:miter;" x="160.08" xlink:href="#m6229bb8091" y="104.776532"/>
     <use style="fill:#595959;stroke:#595959;stroke-linejoin:miter;" x="160.08" xlink:href="#m6229bb8091" y="120.440417"/>
     <use style="fill:#595959;stroke:#595959;stroke-linejoin:miter;" x="160.08" xlink:href="#m6229bb8091" y="117.642241"/>
     <use style="fill:#595959;stroke:#595959;stroke-linejoin:miter;" x="160.08" xlink:href="#m6229bb8091" y="97.807206"/>
     <use style="fill:#595959;stroke:#595959;stroke-linejoin:miter;" x="160.08" xlink:href="#m6229bb8091" y="78.481856"/>
     <use style="fill:#595959;stroke:#595959;stroke-linejoin:miter;" x="160.08" xlink:href="#m6229bb8091" y="110.86622"/>
     <use style="fill:#595959;stroke:#595959;stroke-linejoin:miter;" x="160.08" xlink:href="#m6229bb8091" y="120.868353"/>
     <use style="fill:#595959;stroke:#595959;stroke-linejoin:miter;" x="160.08" xlink:href="#m6229bb8091" y="119.913847"/>
     <use style="fill:#595959;stroke:#595959;stroke-linejoin:miter;" x="160.08" xlink:href="#m6229bb8091" y="98.516462"/>
     <use style="fill:#595959;stroke:#595959;stroke-linejoin:miter;" x="160.08" xlink:href="#m6229bb8091" y="114.347414"/>
     <use style="fill:#595959;stroke:#595959;stroke-linejoin:miter;" x="160.08" xlink:href="#m6229bb8091" y="114.56738"/>
     <use style="fill:#595959;stroke:#595959;stroke-linejoin:miter;" x="160.08" xlink:href="#m6229bb8091" y="77.776364"/>
     <use style="fill:#595959;stroke:#595959;stroke-linejoin:miter;" x="160.08" xlink:href="#m6229bb8091" y="109.06969"/>
     <use style="fill:#595959;stroke:#595959;stroke-linejoin:miter;" x="160.08" xlink:href="#m6229bb8091" y="92.285075"/>
     <use style="fill:#595959;stroke:#595959;stroke-linejoin:miter;" x="160.08" xlink:href="#m6229bb8091" y="118.59096"/>
     <use style="fill:#595959;stroke:#595959;stroke-linejoin:miter;" x="160.08" xlink:href="#m6229bb8091" y="105.126006"/>
     <use style="fill:#595959;stroke:#595959;stroke-linejoin:miter;" x="160.08" xlink:href="#m6229bb8091" y="79.916243"/>
     <use style="fill:#595959;stroke:#595959;stroke-linejoin:miter;" x="160.08" xlink:href="#m6229bb8091" y="112.206805"/>
     <use style="fill:#595959;stroke:#595959;stroke-linejoin:miter;" x="160.08" xlink:href="#m6229bb8091" y="121.837917"/>
     <use style="fill:#595959;stroke:#595959;stroke-linejoin:miter;" x="160.08" xlink:href="#m6229bb8091" y="121.263056"/>
     <use style="fill:#595959;stroke:#595959;stroke-linejoin:miter;" x="160.08" xlink:href="#m6229bb8091" y="122.060889"/>
     <use style="fill:#595959;stroke:#595959;stroke-linejoin:miter;" x="160.08" xlink:href="#m6229bb8091" y="111.478838"/>
     <use style="fill:#595959;stroke:#595959;stroke-linejoin:miter;" x="160.08" xlink:href="#m6229bb8091" y="101.663213"/>
     <use style="fill:#595959;stroke:#595959;stroke-linejoin:miter;" x="160.08" xlink:href="#m6229bb8091" y="118.271574"/>
     <use style="fill:#595959;stroke:#595959;stroke-linejoin:miter;" x="160.08" xlink:href="#m6229bb8091" y="116.835474"/>
     <use style="fill:#595959;stroke:#595959;stroke-linejoin:miter;" x="160.08" xlink:href="#m6229bb8091" y="112.358449"/>
     <use style="fill:#595959;stroke:#595959;stroke-linejoin:miter;" x="160.08" xlink:href="#m6229bb8091" y="117.848891"/>
     <use style="fill:#595959;stroke:#595959;stroke-linejoin:miter;" x="160.08" xlink:href="#m6229bb8091" y="119.10354"/>
     <use style="fill:#595959;stroke:#595959;stroke-linejoin:miter;" x="160.08" xlink:href="#m6229bb8091" y="121.595028"/>
     <use style="fill:#595959;stroke:#595959;stroke-linejoin:miter;" x="160.08" xlink:href="#m6229bb8091" y="93.772051"/>
     <use style="fill:#595959;stroke:#595959;stroke-linejoin:miter;" x="160.08" xlink:href="#m6229bb8091" y="121.013958"/>
     <use style="fill:#595959;stroke:#595959;stroke-linejoin:miter;" x="160.08" xlink:href="#m6229bb8091" y="121.376888"/>
     <use style="fill:#595959;stroke:#595959;stroke-linejoin:miter;" x="160.08" xlink:href="#m6229bb8091" y="121.050394"/>
    </g>
   </g>
   <g id="line2d_13">
    <path clip-path="url(#pc0408c8eae)" d="M 219.6 251.364726 
L 219.6 328.441353 
" style="fill:none;stroke:#595959;stroke-linecap:round;stroke-width:3;"/>
   </g>
   <g id="line2d_14">
    <path clip-path="url(#pc0408c8eae)" d="M 219.6 199.227947 
L 219.6 121.050394 
" style="fill:none;stroke:#595959;stroke-linecap:round;stroke-width:3;"/>
   </g>
   <g id="line2d_15">
    <path clip-path="url(#pc0408c8eae)" d="M 205.0176 328.441353 
L 234.1824 328.441353 
" style="fill:none;stroke:#595959;stroke-linecap:round;stroke-width:3;"/>
   </g>
   <g id="line2d_16">
    <path clip-path="url(#pc0408c8eae)" d="M 205.0176 121.050394 
L 234.1824 121.050394 
" style="fill:none;stroke:#595959;stroke-linecap:round;stroke-width:3;"/>
   </g>
   <g id="line2d_17">
    <g clip-path="url(#pc0408c8eae)">
     <use style="fill:#595959;stroke:#595959;stroke-linejoin:miter;" x="219.6" xlink:href="#m6229bb8091" y="352.795272"/>
     <use style="fill:#595959;stroke:#595959;stroke-linejoin:miter;" x="219.6" xlink:href="#m6229bb8091" y="353.920821"/>
     <use style="fill:#595959;stroke:#595959;stroke-linejoin:miter;" x="219.6" xlink:href="#m6229bb8091" y="345.429725"/>
     <use style="fill:#595959;stroke:#595959;stroke-linejoin:miter;" x="219.6" xlink:href="#m6229bb8091" y="330.741586"/>
     <use style="fill:#595959;stroke:#595959;stroke-linejoin:miter;" x="219.6" xlink:href="#m6229bb8091" y="335.929272"/>
     <use style="fill:#595959;stroke:#595959;stroke-linejoin:miter;" x="219.6" xlink:href="#m6229bb8091" y="334.052678"/>
     <use style="fill:#595959;stroke:#595959;stroke-linejoin:miter;" x="219.6" xlink:href="#m6229bb8091" y="338.051143"/>
     <use style="fill:#595959;stroke:#595959;stroke-linejoin:miter;" x="219.6" xlink:href="#m6229bb8091" y="376.006547"/>
     <use style="fill:#595959;stroke:#595959;stroke-linejoin:miter;" x="219.6" xlink:href="#m6229bb8091" y="339.811602"/>
     <use style="fill:#595959;stroke:#595959;stroke-linejoin:miter;" x="219.6" xlink:href="#m6229bb8091" y="117.235627"/>
     <use style="fill:#595959;stroke:#595959;stroke-linejoin:miter;" x="219.6" xlink:href="#m6229bb8091" y="119.606512"/>
     <use style="fill:#595959;stroke:#595959;stroke-linejoin:miter;" x="219.6" xlink:href="#m6229bb8091" y="104.776532"/>
     <use style="fill:#595959;stroke:#595959;stroke-linejoin:miter;" x="219.6" xlink:href="#m6229bb8091" y="120.440417"/>
     <use style="fill:#595959;stroke:#595959;stroke-linejoin:miter;" x="219.6" xlink:href="#m6229bb8091" y="97.807206"/>
     <use style="fill:#595959;stroke:#595959;stroke-linejoin:miter;" x="219.6" xlink:href="#m6229bb8091" y="78.481856"/>
     <use style="fill:#595959;stroke:#595959;stroke-linejoin:miter;" x="219.6" xlink:href="#m6229bb8091" y="110.86622"/>
     <use style="fill:#595959;stroke:#595959;stroke-linejoin:miter;" x="219.6" xlink:href="#m6229bb8091" y="120.868353"/>
     <use style="fill:#595959;stroke:#595959;stroke-linejoin:miter;" x="219.6" xlink:href="#m6229bb8091" y="119.913847"/>
     <use style="fill:#595959;stroke:#595959;stroke-linejoin:miter;" x="219.6" xlink:href="#m6229bb8091" y="98.516462"/>
     <use style="fill:#595959;stroke:#595959;stroke-linejoin:miter;" x="219.6" xlink:href="#m6229bb8091" y="114.347414"/>
     <use style="fill:#595959;stroke:#595959;stroke-linejoin:miter;" x="219.6" xlink:href="#m6229bb8091" y="114.56738"/>
     <use style="fill:#595959;stroke:#595959;stroke-linejoin:miter;" x="219.6" xlink:href="#m6229bb8091" y="77.776364"/>
     <use style="fill:#595959;stroke:#595959;stroke-linejoin:miter;" x="219.6" xlink:href="#m6229bb8091" y="109.06969"/>
     <use style="fill:#595959;stroke:#595959;stroke-linejoin:miter;" x="219.6" xlink:href="#m6229bb8091" y="92.285075"/>
     <use style="fill:#595959;stroke:#595959;stroke-linejoin:miter;" x="219.6" xlink:href="#m6229bb8091" y="105.126006"/>
     <use style="fill:#595959;stroke:#595959;stroke-linejoin:miter;" x="219.6" xlink:href="#m6229bb8091" y="79.916243"/>
     <use style="fill:#595959;stroke:#595959;stroke-linejoin:miter;" x="219.6" xlink:href="#m6229bb8091" y="112.206805"/>
     <use style="fill:#595959;stroke:#595959;stroke-linejoin:miter;" x="219.6" xlink:href="#m6229bb8091" y="111.478838"/>
     <use style="fill:#595959;stroke:#595959;stroke-linejoin:miter;" x="219.6" xlink:href="#m6229bb8091" y="101.663213"/>
     <use style="fill:#595959;stroke:#595959;stroke-linejoin:miter;" x="219.6" xlink:href="#m6229bb8091" y="118.271574"/>
     <use style="fill:#595959;stroke:#595959;stroke-linejoin:miter;" x="219.6" xlink:href="#m6229bb8091" y="116.835474"/>
     <use style="fill:#595959;stroke:#595959;stroke-linejoin:miter;" x="219.6" xlink:href="#m6229bb8091" y="112.358449"/>
     <use style="fill:#595959;stroke:#595959;stroke-linejoin:miter;" x="219.6" xlink:href="#m6229bb8091" y="117.848891"/>
     <use style="fill:#595959;stroke:#595959;stroke-linejoin:miter;" x="219.6" xlink:href="#m6229bb8091" y="119.10354"/>
     <use style="fill:#595959;stroke:#595959;stroke-linejoin:miter;" x="219.6" xlink:href="#m6229bb8091" y="121.013958"/>
    </g>
   </g>
   <g id="line2d_18">
    <path clip-path="url(#pc0408c8eae)" d="M 279.12 321.041842 
L 279.12 386.764599 
" style="fill:none;stroke:#595959;stroke-linecap:round;stroke-width:3;"/>
   </g>
   <g id="line2d_19">
    <path clip-path="url(#pc0408c8eae)" d="M 279.12 277.07513 
L 279.12 211.275343 
" style="fill:none;stroke:#595959;stroke-linecap:round;stroke-width:3;"/>
   </g>
   <g id="line2d_20">
    <path clip-path="url(#pc0408c8eae)" d="M 264.5376 386.764599 
L 293.7024 386.764599 
" style="fill:none;stroke:#595959;stroke-linecap:round;stroke-width:3;"/>
   </g>
   <g id="line2d_21">
    <path clip-path="url(#pc0408c8eae)" d="M 264.5376 211.275343 
L 293.7024 211.275343 
" style="fill:none;stroke:#595959;stroke-linecap:round;stroke-width:3;"/>
   </g>
   <g id="line2d_22">
    <g clip-path="url(#pc0408c8eae)">
     <use style="fill:#595959;stroke:#595959;stroke-linejoin:miter;" x="279.12" xlink:href="#m6229bb8091" y="397.092439"/>
     <use style="fill:#595959;stroke:#595959;stroke-linejoin:miter;" x="279.12" xlink:href="#m6229bb8091" y="406.012525"/>
     <use style="fill:#595959;stroke:#595959;stroke-linejoin:miter;" x="279.12" xlink:href="#m6229bb8091" y="410.255914"/>
     <use style="fill:#595959;stroke:#595959;stroke-linejoin:miter;" x="279.12" xlink:href="#m6229bb8091" y="387.328448"/>
     <use style="fill:#595959;stroke:#595959;stroke-linejoin:miter;" x="279.12" xlink:href="#m6229bb8091" y="394.642347"/>
     <use style="fill:#595959;stroke:#595959;stroke-linejoin:miter;" x="279.12" xlink:href="#m6229bb8091" y="391.034311"/>
     <use style="fill:#595959;stroke:#595959;stroke-linejoin:miter;" x="279.12" xlink:href="#m6229bb8091" y="387.419722"/>
     <use style="fill:#595959;stroke:#595959;stroke-linejoin:miter;" x="279.12" xlink:href="#m6229bb8091" y="392.68191"/>
     <use style="fill:#595959;stroke:#595959;stroke-linejoin:miter;" x="279.12" xlink:href="#m6229bb8091" y="403.638145"/>
     <use style="fill:#595959;stroke:#595959;stroke-linejoin:miter;" x="279.12" xlink:href="#m6229bb8091" y="423.703636"/>
     <use style="fill:#595959;stroke:#595959;stroke-linejoin:miter;" x="279.12" xlink:href="#m6229bb8091" y="406.304198"/>
     <use style="fill:#595959;stroke:#595959;stroke-linejoin:miter;" x="279.12" xlink:href="#m6229bb8091" y="391.902983"/>
     <use style="fill:#595959;stroke:#595959;stroke-linejoin:miter;" x="279.12" xlink:href="#m6229bb8091" y="209.919419"/>
     <use style="fill:#595959;stroke:#595959;stroke-linejoin:miter;" x="279.12" xlink:href="#m6229bb8091" y="186.7191"/>
     <use style="fill:#595959;stroke:#595959;stroke-linejoin:miter;" x="279.12" xlink:href="#m6229bb8091" y="165.74645"/>
     <use style="fill:#595959;stroke:#595959;stroke-linejoin:miter;" x="279.12" xlink:href="#m6229bb8091" y="207.510497"/>
     <use style="fill:#595959;stroke:#595959;stroke-linejoin:miter;" x="279.12" xlink:href="#m6229bb8091" y="204.434484"/>
     <use style="fill:#595959;stroke:#595959;stroke-linejoin:miter;" x="279.12" xlink:href="#m6229bb8091" y="200.581651"/>
     <use style="fill:#595959;stroke:#595959;stroke-linejoin:miter;" x="279.12" xlink:href="#m6229bb8091" y="207.424505"/>
     <use style="fill:#595959;stroke:#595959;stroke-linejoin:miter;" x="279.12" xlink:href="#m6229bb8091" y="207.742009"/>
     <use style="fill:#595959;stroke:#595959;stroke-linejoin:miter;" x="279.12" xlink:href="#m6229bb8091" y="171.254703"/>
     <use style="fill:#595959;stroke:#595959;stroke-linejoin:miter;" x="279.12" xlink:href="#m6229bb8091" y="210.126912"/>
     <use style="fill:#595959;stroke:#595959;stroke-linejoin:miter;" x="279.12" xlink:href="#m6229bb8091" y="186.745227"/>
     <use style="fill:#595959;stroke:#595959;stroke-linejoin:miter;" x="279.12" xlink:href="#m6229bb8091" y="208.532257"/>
     <use style="fill:#595959;stroke:#595959;stroke-linejoin:miter;" x="279.12" xlink:href="#m6229bb8091" y="204.250477"/>
     <use style="fill:#595959;stroke:#595959;stroke-linejoin:miter;" x="279.12" xlink:href="#m6229bb8091" y="202.858735"/>
     <use style="fill:#595959;stroke:#595959;stroke-linejoin:miter;" x="279.12" xlink:href="#m6229bb8091" y="210.417644"/>
     <use style="fill:#595959;stroke:#595959;stroke-linejoin:miter;" x="279.12" xlink:href="#m6229bb8091" y="206.709011"/>
     <use style="fill:#595959;stroke:#595959;stroke-linejoin:miter;" x="279.12" xlink:href="#m6229bb8091" y="207.352475"/>
     <use style="fill:#595959;stroke:#595959;stroke-linejoin:miter;" x="279.12" xlink:href="#m6229bb8091" y="207.124306"/>
     <use style="fill:#595959;stroke:#595959;stroke-linejoin:miter;" x="279.12" xlink:href="#m6229bb8091" y="209.972206"/>
     <use style="fill:#595959;stroke:#595959;stroke-linejoin:miter;" x="279.12" xlink:href="#m6229bb8091" y="206.115131"/>
     <use style="fill:#595959;stroke:#595959;stroke-linejoin:miter;" x="279.12" xlink:href="#m6229bb8091" y="176.265742"/>
     <use style="fill:#595959;stroke:#595959;stroke-linejoin:miter;" x="279.12" xlink:href="#m6229bb8091" y="211.070631"/>
     <use style="fill:#595959;stroke:#595959;stroke-linejoin:miter;" x="279.12" xlink:href="#m6229bb8091" y="194.273206"/>
     <use style="fill:#595959;stroke:#595959;stroke-linejoin:miter;" x="279.12" xlink:href="#m6229bb8091" y="206.80079"/>
     <use style="fill:#595959;stroke:#595959;stroke-linejoin:miter;" x="279.12" xlink:href="#m6229bb8091" y="210.045837"/>
     <use style="fill:#595959;stroke:#595959;stroke-linejoin:miter;" x="279.12" xlink:href="#m6229bb8091" y="205.133684"/>
     <use style="fill:#595959;stroke:#595959;stroke-linejoin:miter;" x="279.12" xlink:href="#m6229bb8091" y="176.126795"/>
     <use style="fill:#595959;stroke:#595959;stroke-linejoin:miter;" x="279.12" xlink:href="#m6229bb8091" y="193.396516"/>
     <use style="fill:#595959;stroke:#595959;stroke-linejoin:miter;" x="279.12" xlink:href="#m6229bb8091" y="184.999376"/>
    </g>
   </g>
   <g id="line2d_23">
    <path clip-path="url(#pc0408c8eae)" d="M 383.28 249.124275 
L 383.28 321.183711 
" style="fill:none;stroke:#595959;stroke-linecap:round;stroke-width:3;"/>
   </g>
   <g id="line2d_24">
    <path clip-path="url(#pc0408c8eae)" d="M 383.28 200.750095 
L 383.28 130.973306 
" style="fill:none;stroke:#595959;stroke-linecap:round;stroke-width:3;"/>
   </g>
   <g id="line2d_25">
    <path clip-path="url(#pc0408c8eae)" d="M 368.6976 321.183711 
L 397.8624 321.183711 
" style="fill:none;stroke:#595959;stroke-linecap:round;stroke-width:3;"/>
   </g>
   <g id="line2d_26">
    <path clip-path="url(#pc0408c8eae)" d="M 368.6976 130.973306 
L 397.8624 130.973306 
" style="fill:none;stroke:#595959;stroke-linecap:round;stroke-width:3;"/>
   </g>
   <g id="line2d_27">
    <g clip-path="url(#pc0408c8eae)">
     <use style="fill:#595959;stroke:#595959;stroke-linejoin:miter;" x="383.28" xlink:href="#m6229bb8091" y="345.216839"/>
     <use style="fill:#595959;stroke:#595959;stroke-linejoin:miter;" x="383.28" xlink:href="#m6229bb8091" y="100.92075"/>
     <use style="fill:#595959;stroke:#595959;stroke-linejoin:miter;" x="383.28" xlink:href="#m6229bb8091" y="118.172379"/>
     <use style="fill:#595959;stroke:#595959;stroke-linejoin:miter;" x="383.28" xlink:href="#m6229bb8091" y="119.207877"/>
     <use style="fill:#595959;stroke:#595959;stroke-linejoin:miter;" x="383.28" xlink:href="#m6229bb8091" y="118.61821"/>
     <use style="fill:#595959;stroke:#595959;stroke-linejoin:miter;" x="383.28" xlink:href="#m6229bb8091" y="109.047666"/>
     <use style="fill:#595959;stroke:#595959;stroke-linejoin:miter;" x="383.28" xlink:href="#m6229bb8091" y="125.471739"/>
     <use style="fill:#595959;stroke:#595959;stroke-linejoin:miter;" x="383.28" xlink:href="#m6229bb8091" y="127.710139"/>
     <use style="fill:#595959;stroke:#595959;stroke-linejoin:miter;" x="383.28" xlink:href="#m6229bb8091" y="117.908307"/>
     <use style="fill:#595959;stroke:#595959;stroke-linejoin:miter;" x="383.28" xlink:href="#m6229bb8091" y="100.816891"/>
     <use style="fill:#595959;stroke:#595959;stroke-linejoin:miter;" x="383.28" xlink:href="#m6229bb8091" y="121.226367"/>
     <use style="fill:#595959;stroke:#595959;stroke-linejoin:miter;" x="383.28" xlink:href="#m6229bb8091" y="119.485601"/>
     <use style="fill:#595959;stroke:#595959;stroke-linejoin:miter;" x="383.28" xlink:href="#m6229bb8091" y="94.197178"/>
     <use style="fill:#595959;stroke:#595959;stroke-linejoin:miter;" x="383.28" xlink:href="#m6229bb8091" y="123.222748"/>
     <use style="fill:#595959;stroke:#595959;stroke-linejoin:miter;" x="383.28" xlink:href="#m6229bb8091" y="99.676945"/>
     <use style="fill:#595959;stroke:#595959;stroke-linejoin:miter;" x="383.28" xlink:href="#m6229bb8091" y="111.403999"/>
     <use style="fill:#595959;stroke:#595959;stroke-linejoin:miter;" x="383.28" xlink:href="#m6229bb8091" y="110.934205"/>
     <use style="fill:#595959;stroke:#595959;stroke-linejoin:miter;" x="383.28" xlink:href="#m6229bb8091" y="113.158081"/>
     <use style="fill:#595959;stroke:#595959;stroke-linejoin:miter;" x="383.28" xlink:href="#m6229bb8091" y="125.461429"/>
     <use style="fill:#595959;stroke:#595959;stroke-linejoin:miter;" x="383.28" xlink:href="#m6229bb8091" y="123.896018"/>
     <use style="fill:#595959;stroke:#595959;stroke-linejoin:miter;" x="383.28" xlink:href="#m6229bb8091" y="127.290968"/>
    </g>
   </g>
   <g id="line2d_28">
    <path clip-path="url(#pc0408c8eae)" d="M 442.8 249.102721 
L 442.8 321.183711 
" style="fill:none;stroke:#595959;stroke-linecap:round;stroke-width:3;"/>
   </g>
   <g id="line2d_29">
    <path clip-path="url(#pc0408c8eae)" d="M 442.8 200.111133 
L 442.8 127.710139 
" style="fill:none;stroke:#595959;stroke-linecap:round;stroke-width:3;"/>
   </g>
   <g id="line2d_30">
    <path clip-path="url(#pc0408c8eae)" d="M 428.2176 321.183711 
L 457.3824 321.183711 
" style="fill:none;stroke:#595959;stroke-linecap:round;stroke-width:3;"/>
   </g>
   <g id="line2d_31">
    <path clip-path="url(#pc0408c8eae)" d="M 428.2176 127.710139 
L 457.3824 127.710139 
" style="fill:none;stroke:#595959;stroke-linecap:round;stroke-width:3;"/>
   </g>
   <g id="line2d_32">
    <g clip-path="url(#pc0408c8eae)">
     <use style="fill:#595959;stroke:#595959;stroke-linejoin:miter;" x="442.8" xlink:href="#m6229bb8091" y="100.92075"/>
     <use style="fill:#595959;stroke:#595959;stroke-linejoin:miter;" x="442.8" xlink:href="#m6229bb8091" y="118.172379"/>
     <use style="fill:#595959;stroke:#595959;stroke-linejoin:miter;" x="442.8" xlink:href="#m6229bb8091" y="119.207877"/>
     <use style="fill:#595959;stroke:#595959;stroke-linejoin:miter;" x="442.8" xlink:href="#m6229bb8091" y="118.61821"/>
     <use style="fill:#595959;stroke:#595959;stroke-linejoin:miter;" x="442.8" xlink:href="#m6229bb8091" y="125.471739"/>
     <use style="fill:#595959;stroke:#595959;stroke-linejoin:miter;" x="442.8" xlink:href="#m6229bb8091" y="117.908307"/>
     <use style="fill:#595959;stroke:#595959;stroke-linejoin:miter;" x="442.8" xlink:href="#m6229bb8091" y="100.816891"/>
     <use style="fill:#595959;stroke:#595959;stroke-linejoin:miter;" x="442.8" xlink:href="#m6229bb8091" y="121.226367"/>
     <use style="fill:#595959;stroke:#595959;stroke-linejoin:miter;" x="442.8" xlink:href="#m6229bb8091" y="119.485601"/>
     <use style="fill:#595959;stroke:#595959;stroke-linejoin:miter;" x="442.8" xlink:href="#m6229bb8091" y="94.197178"/>
     <use style="fill:#595959;stroke:#595959;stroke-linejoin:miter;" x="442.8" xlink:href="#m6229bb8091" y="123.222748"/>
     <use style="fill:#595959;stroke:#595959;stroke-linejoin:miter;" x="442.8" xlink:href="#m6229bb8091" y="99.676945"/>
     <use style="fill:#595959;stroke:#595959;stroke-linejoin:miter;" x="442.8" xlink:href="#m6229bb8091" y="111.403999"/>
     <use style="fill:#595959;stroke:#595959;stroke-linejoin:miter;" x="442.8" xlink:href="#m6229bb8091" y="110.934205"/>
     <use style="fill:#595959;stroke:#595959;stroke-linejoin:miter;" x="442.8" xlink:href="#m6229bb8091" y="125.461429"/>
    </g>
   </g>
   <g id="line2d_33">
    <path clip-path="url(#pc0408c8eae)" d="M 502.32 317.568627 
L 502.32 376.262876 
" style="fill:none;stroke:#595959;stroke-linecap:round;stroke-width:3;"/>
   </g>
   <g id="line2d_34">
    <path clip-path="url(#pc0408c8eae)" d="M 502.32 275.302957 
L 502.32 212.46403 
" style="fill:none;stroke:#595959;stroke-linecap:round;stroke-width:3;"/>
   </g>
   <g id="line2d_35">
    <path clip-path="url(#pc0408c8eae)" d="M 487.7376 376.262876 
L 516.9024 376.262876 
" style="fill:none;stroke:#595959;stroke-linecap:round;stroke-width:3;"/>
   </g>
   <g id="line2d_36">
    <path clip-path="url(#pc0408c8eae)" d="M 487.7376 212.46403 
L 516.9024 212.46403 
" style="fill:none;stroke:#595959;stroke-linecap:round;stroke-width:3;"/>
   </g>
   <g id="line2d_37">
    <g clip-path="url(#pc0408c8eae)">
     <use style="fill:#595959;stroke:#595959;stroke-linejoin:miter;" x="502.32" xlink:href="#m6229bb8091" y="394.932036"/>
     <use style="fill:#595959;stroke:#595959;stroke-linejoin:miter;" x="502.32" xlink:href="#m6229bb8091" y="195.98262"/>
     <use style="fill:#595959;stroke:#595959;stroke-linejoin:miter;" x="502.32" xlink:href="#m6229bb8091" y="210.246643"/>
     <use style="fill:#595959;stroke:#595959;stroke-linejoin:miter;" x="502.32" xlink:href="#m6229bb8091" y="205.046765"/>
     <use style="fill:#595959;stroke:#595959;stroke-linejoin:miter;" x="502.32" xlink:href="#m6229bb8091" y="211.270342"/>
     <use style="fill:#595959;stroke:#595959;stroke-linejoin:miter;" x="502.32" xlink:href="#m6229bb8091" y="204.254831"/>
     <use style="fill:#595959;stroke:#595959;stroke-linejoin:miter;" x="502.32" xlink:href="#m6229bb8091" y="199.917595"/>
     <use style="fill:#595959;stroke:#595959;stroke-linejoin:miter;" x="502.32" xlink:href="#m6229bb8091" y="209.097258"/>
     <use style="fill:#595959;stroke:#595959;stroke-linejoin:miter;" x="502.32" xlink:href="#m6229bb8091" y="181.558271"/>
     <use style="fill:#595959;stroke:#595959;stroke-linejoin:miter;" x="502.32" xlink:href="#m6229bb8091" y="207.405458"/>
     <use style="fill:#595959;stroke:#595959;stroke-linejoin:miter;" x="502.32" xlink:href="#m6229bb8091" y="211.131396"/>
     <use style="fill:#595959;stroke:#595959;stroke-linejoin:miter;" x="502.32" xlink:href="#m6229bb8091" y="196.948897"/>
     <use style="fill:#595959;stroke:#595959;stroke-linejoin:miter;" x="502.32" xlink:href="#m6229bb8091" y="195.148238"/>
     <use style="fill:#595959;stroke:#595959;stroke-linejoin:miter;" x="502.32" xlink:href="#m6229bb8091" y="210.911907"/>
     <use style="fill:#595959;stroke:#595959;stroke-linejoin:miter;" x="502.32" xlink:href="#m6229bb8091" y="209.52865"/>
     <use style="fill:#595959;stroke:#595959;stroke-linejoin:miter;" x="502.32" xlink:href="#m6229bb8091" y="201.84102"/>
     <use style="fill:#595959;stroke:#595959;stroke-linejoin:miter;" x="502.32" xlink:href="#m6229bb8091" y="184.463451"/>
     <use style="fill:#595959;stroke:#595959;stroke-linejoin:miter;" x="502.32" xlink:href="#m6229bb8091" y="207.423718"/>
     <use style="fill:#595959;stroke:#595959;stroke-linejoin:miter;" x="502.32" xlink:href="#m6229bb8091" y="208.409941"/>
     <use style="fill:#595959;stroke:#595959;stroke-linejoin:miter;" x="502.32" xlink:href="#m6229bb8091" y="195.371884"/>
     <use style="fill:#595959;stroke:#595959;stroke-linejoin:miter;" x="502.32" xlink:href="#m6229bb8091" y="211.871836"/>
    </g>
   </g>
   <g id="line2d_38">
    <path clip-path="url(#pc0408c8eae)" d="M 606.48 250.979195 
L 606.48 318.868646 
" style="fill:none;stroke:#595959;stroke-linecap:round;stroke-width:3;"/>
   </g>
   <g id="line2d_39">
    <path clip-path="url(#pc0408c8eae)" d="M 606.48 205.33001 
L 606.48 138.095429 
" style="fill:none;stroke:#595959;stroke-linecap:round;stroke-width:3;"/>
   </g>
   <g id="line2d_40">
    <path clip-path="url(#pc0408c8eae)" d="M 591.8976 318.868646 
L 621.0624 318.868646 
" style="fill:none;stroke:#595959;stroke-linecap:round;stroke-width:3;"/>
   </g>
   <g id="line2d_41">
    <path clip-path="url(#pc0408c8eae)" d="M 591.8976 138.095429 
L 621.0624 138.095429 
" style="fill:none;stroke:#595959;stroke-linecap:round;stroke-width:3;"/>
   </g>
   <g id="line2d_42">
    <g clip-path="url(#pc0408c8eae)">
     <use style="fill:#595959;stroke:#595959;stroke-linejoin:miter;" x="606.48" xlink:href="#m6229bb8091" y="320.003142"/>
     <use style="fill:#595959;stroke:#595959;stroke-linejoin:miter;" x="606.48" xlink:href="#m6229bb8091" y="322.696588"/>
     <use style="fill:#595959;stroke:#595959;stroke-linejoin:miter;" x="606.48" xlink:href="#m6229bb8091" y="329.009276"/>
     <use style="fill:#595959;stroke:#595959;stroke-linejoin:miter;" x="606.48" xlink:href="#m6229bb8091" y="319.919229"/>
     <use style="fill:#595959;stroke:#595959;stroke-linejoin:miter;" x="606.48" xlink:href="#m6229bb8091" y="133.065933"/>
     <use style="fill:#595959;stroke:#595959;stroke-linejoin:miter;" x="606.48" xlink:href="#m6229bb8091" y="96.594499"/>
     <use style="fill:#595959;stroke:#595959;stroke-linejoin:miter;" x="606.48" xlink:href="#m6229bb8091" y="119.684638"/>
     <use style="fill:#595959;stroke:#595959;stroke-linejoin:miter;" x="606.48" xlink:href="#m6229bb8091" y="123.531628"/>
     <use style="fill:#595959;stroke:#595959;stroke-linejoin:miter;" x="606.48" xlink:href="#m6229bb8091" y="117.696966"/>
     <use style="fill:#595959;stroke:#595959;stroke-linejoin:miter;" x="606.48" xlink:href="#m6229bb8091" y="131.546172"/>
     <use style="fill:#595959;stroke:#595959;stroke-linejoin:miter;" x="606.48" xlink:href="#m6229bb8091" y="131.402001"/>
     <use style="fill:#595959;stroke:#595959;stroke-linejoin:miter;" x="606.48" xlink:href="#m6229bb8091" y="129.936207"/>
     <use style="fill:#595959;stroke:#595959;stroke-linejoin:miter;" x="606.48" xlink:href="#m6229bb8091" y="121.565249"/>
    </g>
   </g>
   <g id="line2d_43">
    <path clip-path="url(#pc0408c8eae)" d="M 666 250.816946 
L 666 318.868646 
" style="fill:none;stroke:#595959;stroke-linecap:round;stroke-width:3;"/>
   </g>
   <g id="line2d_44">
    <path clip-path="url(#pc0408c8eae)" d="M 666 205.356937 
L 666 138.095429 
" style="fill:none;stroke:#595959;stroke-linecap:round;stroke-width:3;"/>
   </g>
   <g id="line2d_45">
    <path clip-path="url(#pc0408c8eae)" d="M 651.4176 318.868646 
L 680.5824 318.868646 
" style="fill:none;stroke:#595959;stroke-linecap:round;stroke-width:3;"/>
   </g>
   <g id="line2d_46">
    <path clip-path="url(#pc0408c8eae)" d="M 651.4176 138.095429 
L 680.5824 138.095429 
" style="fill:none;stroke:#595959;stroke-linecap:round;stroke-width:3;"/>
   </g>
   <g id="line2d_47">
    <g clip-path="url(#pc0408c8eae)">
     <use style="fill:#595959;stroke:#595959;stroke-linejoin:miter;" x="666" xlink:href="#m6229bb8091" y="320.003142"/>
     <use style="fill:#595959;stroke:#595959;stroke-linejoin:miter;" x="666" xlink:href="#m6229bb8091" y="322.696588"/>
     <use style="fill:#595959;stroke:#595959;stroke-linejoin:miter;" x="666" xlink:href="#m6229bb8091" y="329.009276"/>
     <use style="fill:#595959;stroke:#595959;stroke-linejoin:miter;" x="666" xlink:href="#m6229bb8091" y="96.594499"/>
     <use style="fill:#595959;stroke:#595959;stroke-linejoin:miter;" x="666" xlink:href="#m6229bb8091" y="119.684638"/>
     <use style="fill:#595959;stroke:#595959;stroke-linejoin:miter;" x="666" xlink:href="#m6229bb8091" y="123.531628"/>
     <use style="fill:#595959;stroke:#595959;stroke-linejoin:miter;" x="666" xlink:href="#m6229bb8091" y="117.696966"/>
     <use style="fill:#595959;stroke:#595959;stroke-linejoin:miter;" x="666" xlink:href="#m6229bb8091" y="131.546172"/>
     <use style="fill:#595959;stroke:#595959;stroke-linejoin:miter;" x="666" xlink:href="#m6229bb8091" y="131.402001"/>
     <use style="fill:#595959;stroke:#595959;stroke-linejoin:miter;" x="666" xlink:href="#m6229bb8091" y="129.936207"/>
     <use style="fill:#595959;stroke:#595959;stroke-linejoin:miter;" x="666" xlink:href="#m6229bb8091" y="121.565249"/>
    </g>
   </g>
   <g id="line2d_48">
    <path clip-path="url(#pc0408c8eae)" d="M 725.52 323.108273 
L 725.52 381.990719 
" style="fill:none;stroke:#595959;stroke-linecap:round;stroke-width:3;"/>
   </g>
   <g id="line2d_49">
    <path clip-path="url(#pc0408c8eae)" d="M 725.52 282.800434 
L 725.52 222.631938 
" style="fill:none;stroke:#595959;stroke-linecap:round;stroke-width:3;"/>
   </g>
   <g id="line2d_50">
    <path clip-path="url(#pc0408c8eae)" d="M 710.9376 381.990719 
L 740.1024 381.990719 
" style="fill:none;stroke:#595959;stroke-linecap:round;stroke-width:3;"/>
   </g>
   <g id="line2d_51">
    <path clip-path="url(#pc0408c8eae)" d="M 710.9376 222.631938 
L 740.1024 222.631938 
" style="fill:none;stroke:#595959;stroke-linecap:round;stroke-width:3;"/>
   </g>
   <g id="line2d_52">
    <g clip-path="url(#pc0408c8eae)">
     <use style="fill:#595959;stroke:#595959;stroke-linejoin:miter;" x="725.52" xlink:href="#m6229bb8091" y="394.928752"/>
     <use style="fill:#595959;stroke:#595959;stroke-linejoin:miter;" x="725.52" xlink:href="#m6229bb8091" y="392.348112"/>
     <use style="fill:#595959;stroke:#595959;stroke-linejoin:miter;" x="725.52" xlink:href="#m6229bb8091" y="190.838702"/>
     <use style="fill:#595959;stroke:#595959;stroke-linejoin:miter;" x="725.52" xlink:href="#m6229bb8091" y="204.535393"/>
     <use style="fill:#595959;stroke:#595959;stroke-linejoin:miter;" x="725.52" xlink:href="#m6229bb8091" y="222.333538"/>
     <use style="fill:#595959;stroke:#595959;stroke-linejoin:miter;" x="725.52" xlink:href="#m6229bb8091" y="202.62138"/>
     <use style="fill:#595959;stroke:#595959;stroke-linejoin:miter;" x="725.52" xlink:href="#m6229bb8091" y="213.849591"/>
     <use style="fill:#595959;stroke:#595959;stroke-linejoin:miter;" x="725.52" xlink:href="#m6229bb8091" y="218.773965"/>
     <use style="fill:#595959;stroke:#595959;stroke-linejoin:miter;" x="725.52" xlink:href="#m6229bb8091" y="222.166723"/>
     <use style="fill:#595959;stroke:#595959;stroke-linejoin:miter;" x="725.52" xlink:href="#m6229bb8091" y="218.841724"/>
     <use style="fill:#595959;stroke:#595959;stroke-linejoin:miter;" x="725.52" xlink:href="#m6229bb8091" y="214.75075"/>
    </g>
   </g>
   <g id="line2d_53">
    <path clip-path="url(#pc0408c8eae)" d="M 130.9152 226.771373 
L 189.2448 226.771373 
" style="fill:none;stroke:#595959;stroke-linecap:round;stroke-width:3;"/>
   </g>
   <g id="line2d_54">
    <path clip-path="url(#pc0408c8eae)" d="M 190.4352 226.263709 
L 248.7648 226.263709 
" style="fill:none;stroke:#595959;stroke-linecap:round;stroke-width:3;"/>
   </g>
   <g id="line2d_55">
    <path clip-path="url(#pc0408c8eae)" d="M 249.9552 299.899315 
L 308.2848 299.899315 
" style="fill:none;stroke:#595959;stroke-linecap:round;stroke-width:3;"/>
   </g>
   <g id="line2d_56">
    <path clip-path="url(#pc0408c8eae)" d="M 354.1152 226.091417 
L 412.4448 226.091417 
" style="fill:none;stroke:#595959;stroke-linecap:round;stroke-width:3;"/>
   </g>
   <g id="line2d_57">
    <path clip-path="url(#pc0408c8eae)" d="M 413.6352 225.462547 
L 471.9648 225.462547 
" style="fill:none;stroke:#595959;stroke-linecap:round;stroke-width:3;"/>
   </g>
   <g id="line2d_58">
    <path clip-path="url(#pc0408c8eae)" d="M 473.1552 296.78358 
L 531.4848 296.78358 
" style="fill:none;stroke:#595959;stroke-linecap:round;stroke-width:3;"/>
   </g>
   <g id="line2d_59">
    <path clip-path="url(#pc0408c8eae)" d="M 577.3152 229.0652 
L 635.6448 229.0652 
" style="fill:none;stroke:#595959;stroke-linecap:round;stroke-width:3;"/>
   </g>
   <g id="line2d_60">
    <path clip-path="url(#pc0408c8eae)" d="M 636.8352 229.214485 
L 695.1648 229.214485 
" style="fill:none;stroke:#595959;stroke-linecap:round;stroke-width:3;"/>
   </g>
   <g id="line2d_61">
    <path clip-path="url(#pc0408c8eae)" d="M 696.3552 303.329676 
L 754.6848 303.329676 
" style="fill:none;stroke:#595959;stroke-linecap:round;stroke-width:3;"/>
   </g>
   <g id="patch_15">
    <path d="M 108 441 
L 108 60.48 
" style="fill:none;stroke:#cccccc;stroke-linecap:square;stroke-linejoin:miter;stroke-width:2.5;"/>
   </g>
   <g id="patch_16">
    <path d="M 108 441 
L 777.6 441 
" style="fill:none;stroke:#cccccc;stroke-linecap:square;stroke-linejoin:miter;stroke-width:2.5;"/>
   </g>
   <g id="text_14">
    <!-- Intracranial Volume Across MRI Manufacturers -->
    <g style="fill:#262626;" transform="translate(166.29375 54.48)scale(0.24 -0.24)">
     <defs>
      <path d="M 28.609375 0 
L 0.78125 72.90625 
L 11.078125 72.90625 
L 34.1875 11.53125 
L 57.328125 72.90625 
L 67.578125 72.90625 
L 39.796875 0 
z
" id="DejaVuSans-86"/>
      <path d="M 34.1875 63.1875 
L 20.796875 26.90625 
L 47.609375 26.90625 
z
M 28.609375 72.90625 
L 39.796875 72.90625 
L 67.578125 0 
L 57.328125 0 
L 50.6875 18.703125 
L 17.828125 18.703125 
L 11.1875 0 
L 0.78125 0 
z
" id="DejaVuSans-65"/>
     </defs>
     <use xlink:href="#DejaVuSans-73"/>
     <use x="29.492188" xlink:href="#DejaVuSans-110"/>
     <use x="92.871094" xlink:href="#DejaVuSans-116"/>
     <use x="132.080078" xlink:href="#DejaVuSans-114"/>
     <use x="173.193359" xlink:href="#DejaVuSans-97"/>
     <use x="234.472656" xlink:href="#DejaVuSans-99"/>
     <use x="289.453125" xlink:href="#DejaVuSans-114"/>
     <use x="330.566406" xlink:href="#DejaVuSans-97"/>
     <use x="391.845703" xlink:href="#DejaVuSans-110"/>
     <use x="455.224609" xlink:href="#DejaVuSans-105"/>
     <use x="483.007812" xlink:href="#DejaVuSans-97"/>
     <use x="544.287109" xlink:href="#DejaVuSans-108"/>
     <use x="572.070312" xlink:href="#DejaVuSans-32"/>
     <use x="603.857422" xlink:href="#DejaVuSans-86"/>
     <use x="664.515625" xlink:href="#DejaVuSans-111"/>
     <use x="725.697266" xlink:href="#DejaVuSans-108"/>
     <use x="753.480469" xlink:href="#DejaVuSans-117"/>
     <use x="816.859375" xlink:href="#DejaVuSans-109"/>
     <use x="914.271484" xlink:href="#DejaVuSans-101"/>
     <use x="975.794922" xlink:href="#DejaVuSans-32"/>
     <use x="1007.582031" xlink:href="#DejaVuSans-65"/>
     <use x="1074.240234" xlink:href="#DejaVuSans-99"/>
     <use x="1129.220703" xlink:href="#DejaVuSans-114"/>
     <use x="1168.083984" xlink:href="#DejaVuSans-111"/>
     <use x="1229.265625" xlink:href="#DejaVuSans-115"/>
     <use x="1281.365234" xlink:href="#DejaVuSans-115"/>
     <use x="1333.464844" xlink:href="#DejaVuSans-32"/>
     <use x="1365.251953" xlink:href="#DejaVuSans-77"/>
     <use x="1451.53125" xlink:href="#DejaVuSans-82"/>
     <use x="1521.013672" xlink:href="#DejaVuSans-73"/>
     <use x="1550.505859" xlink:href="#DejaVuSans-32"/>
     <use x="1582.292969" xlink:href="#DejaVuSans-77"/>
     <use x="1668.572266" xlink:href="#DejaVuSans-97"/>
     <use x="1729.851562" xlink:href="#DejaVuSans-110"/>
     <use x="1793.230469" xlink:href="#DejaVuSans-117"/>
     <use x="1856.609375" xlink:href="#DejaVuSans-102"/>
     <use x="1891.814453" xlink:href="#DejaVuSans-97"/>
     <use x="1953.09375" xlink:href="#DejaVuSans-99"/>
     <use x="2008.074219" xlink:href="#DejaVuSans-116"/>
     <use x="2047.283203" xlink:href="#DejaVuSans-117"/>
     <use x="2110.662109" xlink:href="#DejaVuSans-114"/>
     <use x="2149.525391" xlink:href="#DejaVuSans-101"/>
     <use x="2211.048828" xlink:href="#DejaVuSans-114"/>
     <use x="2252.162109" xlink:href="#DejaVuSans-115"/>
    </g>
   </g>
   <g id="legend_1">
    <g id="patch_17">
     <path d="M 793 251.059625 
L 1007.854063 251.059625 
Q 1012.254063 251.059625 1012.254063 246.659625 
L 1012.254063 151.984 
Q 1012.254063 147.584 1007.854063 147.584 
L 793 147.584 
Q 788.6 147.584 788.6 151.984 
L 788.6 246.659625 
Q 788.6 251.059625 793 251.059625 
z
" style="fill:#ffffff;opacity:0.8;stroke:#cccccc;stroke-linejoin:miter;stroke-width:2;"/>
    </g>
    <g id="patch_18">
     <path d="M 797.4 173.100563 
L 841.4 173.100563 
L 841.4 157.700563 
L 797.4 157.700563 
z
" style="fill:#72b6a1;stroke:#595959;stroke-linejoin:miter;stroke-width:1.5;"/>
    </g>
    <g id="text_15">
     <!-- synthseg -->
     <g style="fill:#262626;" transform="translate(859 173.100563)scale(0.22 -0.22)">
      <defs>
       <path d="M 32.171875 -5.078125 
Q 28.375 -14.84375 24.75 -17.8125 
Q 21.140625 -20.796875 15.09375 -20.796875 
L 7.90625 -20.796875 
L 7.90625 -13.28125 
L 13.1875 -13.28125 
Q 16.890625 -13.28125 18.9375 -11.515625 
Q 21 -9.765625 23.484375 -3.21875 
L 25.09375 0.875 
L 2.984375 54.6875 
L 12.5 54.6875 
L 29.59375 11.921875 
L 46.6875 54.6875 
L 56.203125 54.6875 
z
" id="DejaVuSans-121"/>
       <path d="M 45.40625 27.984375 
Q 45.40625 37.75 41.375 43.109375 
Q 37.359375 48.484375 30.078125 48.484375 
Q 22.859375 48.484375 18.828125 43.109375 
Q 14.796875 37.75 14.796875 27.984375 
Q 14.796875 18.265625 18.828125 12.890625 
Q 22.859375 7.515625 30.078125 7.515625 
Q 37.359375 7.515625 41.375 12.890625 
Q 45.40625 18.265625 45.40625 27.984375 
z
M 54.390625 6.78125 
Q 54.390625 -7.171875 48.1875 -13.984375 
Q 42 -20.796875 29.203125 -20.796875 
Q 24.46875 -20.796875 20.265625 -20.09375 
Q 16.0625 -19.390625 12.109375 -17.921875 
L 12.109375 -9.1875 
Q 16.0625 -11.328125 19.921875 -12.34375 
Q 23.78125 -13.375 27.78125 -13.375 
Q 36.625 -13.375 41.015625 -8.765625 
Q 45.40625 -4.15625 45.40625 5.171875 
L 45.40625 9.625 
Q 42.625 4.78125 38.28125 2.390625 
Q 33.9375 0 27.875 0 
Q 17.828125 0 11.671875 7.65625 
Q 5.515625 15.328125 5.515625 27.984375 
Q 5.515625 40.671875 11.671875 48.328125 
Q 17.828125 56 27.875 56 
Q 33.9375 56 38.28125 53.609375 
Q 42.625 51.21875 45.40625 46.390625 
L 45.40625 54.6875 
L 54.390625 54.6875 
z
" id="DejaVuSans-103"/>
      </defs>
      <use xlink:href="#DejaVuSans-115"/>
      <use x="52.099609" xlink:href="#DejaVuSans-121"/>
      <use x="111.279297" xlink:href="#DejaVuSans-110"/>
      <use x="174.658203" xlink:href="#DejaVuSans-116"/>
      <use x="213.867188" xlink:href="#DejaVuSans-104"/>
      <use x="277.246094" xlink:href="#DejaVuSans-115"/>
      <use x="329.345703" xlink:href="#DejaVuSans-101"/>
      <use x="390.869141" xlink:href="#DejaVuSans-103"/>
     </g>
    </g>
    <g id="patch_19">
     <path d="M 797.4 205.392438 
L 841.4 205.392438 
L 841.4 189.992438 
L 797.4 189.992438 
z
" style="fill:#e99675;stroke:#595959;stroke-linejoin:miter;stroke-width:1.5;"/>
    </g>
    <g id="text_16">
     <!-- synthseg+qc -->
     <g style="fill:#262626;" transform="translate(859 205.392438)scale(0.22 -0.22)">
      <defs>
       <path d="M 46 62.703125 
L 46 35.5 
L 73.1875 35.5 
L 73.1875 27.203125 
L 46 27.203125 
L 46 0 
L 37.796875 0 
L 37.796875 27.203125 
L 10.59375 27.203125 
L 10.59375 35.5 
L 37.796875 35.5 
L 37.796875 62.703125 
z
" id="DejaVuSans-43"/>
       <path d="M 14.796875 27.296875 
Q 14.796875 17.390625 18.875 11.75 
Q 22.953125 6.109375 30.078125 6.109375 
Q 37.203125 6.109375 41.296875 11.75 
Q 45.40625 17.390625 45.40625 27.296875 
Q 45.40625 37.203125 41.296875 42.84375 
Q 37.203125 48.484375 30.078125 48.484375 
Q 22.953125 48.484375 18.875 42.84375 
Q 14.796875 37.203125 14.796875 27.296875 
z
M 45.40625 8.203125 
Q 42.578125 3.328125 38.25 0.953125 
Q 33.9375 -1.421875 27.875 -1.421875 
Q 17.96875 -1.421875 11.734375 6.484375 
Q 5.515625 14.40625 5.515625 27.296875 
Q 5.515625 40.1875 11.734375 48.09375 
Q 17.96875 56 27.875 56 
Q 33.9375 56 38.25 53.625 
Q 42.578125 51.265625 45.40625 46.390625 
L 45.40625 54.6875 
L 54.390625 54.6875 
L 54.390625 -20.796875 
L 45.40625 -20.796875 
z
" id="DejaVuSans-113"/>
      </defs>
      <use xlink:href="#DejaVuSans-115"/>
      <use x="52.099609" xlink:href="#DejaVuSans-121"/>
      <use x="111.279297" xlink:href="#DejaVuSans-110"/>
      <use x="174.658203" xlink:href="#DejaVuSans-116"/>
      <use x="213.867188" xlink:href="#DejaVuSans-104"/>
      <use x="277.246094" xlink:href="#DejaVuSans-115"/>
      <use x="329.345703" xlink:href="#DejaVuSans-101"/>
      <use x="390.869141" xlink:href="#DejaVuSans-103"/>
      <use x="454.345703" xlink:href="#DejaVuSans-43"/>
      <use x="538.134766" xlink:href="#DejaVuSans-113"/>
      <use x="601.611328" xlink:href="#DejaVuSans-99"/>
     </g>
    </g>
    <g id="patch_20">
     <path d="M 797.4 237.684313 
L 841.4 237.684313 
L 841.4 222.284313 
L 797.4 222.284313 
z
" style="fill:#95a3c3;stroke:#595959;stroke-linejoin:miter;stroke-width:1.5;"/>
    </g>
    <g id="text_17">
     <!-- freesurfer -->
     <g style="fill:#262626;" transform="translate(859 237.684313)scale(0.22 -0.22)">
      <use xlink:href="#DejaVuSans-102"/>
      <use x="35.205078" xlink:href="#DejaVuSans-114"/>
      <use x="74.068359" xlink:href="#DejaVuSans-101"/>
      <use x="135.591797" xlink:href="#DejaVuSans-101"/>
      <use x="197.115234" xlink:href="#DejaVuSans-115"/>
      <use x="249.214844" xlink:href="#DejaVuSans-117"/>
      <use x="312.59375" xlink:href="#DejaVuSans-114"/>
      <use x="353.707031" xlink:href="#DejaVuSans-102"/>
      <use x="388.912109" xlink:href="#DejaVuSans-101"/>
      <use x="450.435547" xlink:href="#DejaVuSans-114"/>
     </g>
    </g>
   </g>
  </g>
 </g>
 <defs>
  <clipPath id="pc0408c8eae">
   <rect height="380.52" width="669.6" x="108" y="60.48"/>
  </clipPath>
 </defs>
</svg>
